<?xml version="1.0" encoding="utf-8" standalone="no"?>
<!DOCTYPE svg PUBLIC "-//W3C//DTD SVG 1.1//EN"
  "http://www.w3.org/Graphics/SVG/1.1/DTD/svg11.dtd">
<svg xmlns:xlink="http://www.w3.org/1999/xlink" width="223.65pt" height="173.814844pt" viewBox="0 0 223.65 173.814844" xmlns="http://www.w3.org/2000/svg" version="1.1">
 <metadata>
  <rdf:RDF xmlns:dc="http://purl.org/dc/elements/1.1/" xmlns:cc="http://creativecommons.org/ns#" xmlns:rdf="http://www.w3.org/1999/02/22-rdf-syntax-ns#">
   <cc:Work>
    <dc:type rdf:resource="http://purl.org/dc/dcmitype/StillImage"/>
    <dc:date>2023-07-20T12:26:23.090678</dc:date>
    <dc:format>image/svg+xml</dc:format>
    <dc:creator>
     <cc:Agent>
      <dc:title>Matplotlib v3.7.1, https://matplotlib.org/</dc:title>
     </cc:Agent>
    </dc:creator>
   </cc:Work>
  </rdf:RDF>
 </metadata>
 <defs>
  <style type="text/css">*{stroke-linejoin: round; stroke-linecap: butt}</style>
 </defs>
 <g id="figure_1">
  <g id="patch_1">
   <path d="M 0 173.814844 
L 223.65 173.814844 
L 223.65 0 
L 0 0 
L 0 173.814844 
z
" style="fill: none"/>
  </g>
  <g id="axes_1">
   <g id="patch_2">
    <path d="M 7.2 48.78 
L 216.45 48.78 
L 216.45 7.2 
L 7.2 7.2 
L 7.2 48.78 
z
" style="fill: none"/>
   </g>
   <g id="matplotlib.axis_1">
    <g id="xtick_1"/>
    <g id="xtick_2"/>
    <g id="xtick_3"/>
    <g id="xtick_4"/>
   </g>
   <g id="matplotlib.axis_2"/>
   <g id="line2d_1">
    <path d="M 7.2 48.78 
L 216.45 48.78 
" style="fill: none; stroke: #414487; stroke-opacity: 0.9; stroke-linecap: round"/>
   </g>
   <g id="text_1">
    <!-- 0 -->
    <g style="fill: #414487" transform="translate(7.2 47.732625) scale(0.12 -0.12)">
     <defs>
      <path id="Arial-BoldMT-30" d="M 1756 4600 
Q 2422 4600 2797 4125 
Q 3244 3563 3244 2259 
Q 3244 959 2794 391 
Q 2422 -78 1756 -78 
Q 1088 -78 678 436 
Q 269 950 269 2269 
Q 269 3563 719 4131 
Q 1091 4600 1756 4600 
z
M 1756 3872 
Q 1597 3872 1472 3770 
Q 1347 3669 1278 3406 
Q 1188 3066 1188 2259 
Q 1188 1453 1269 1151 
Q 1350 850 1473 750 
Q 1597 650 1756 650 
Q 1916 650 2041 751 
Q 2166 853 2234 1116 
Q 2325 1453 2325 2259 
Q 2325 3066 2244 3367 
Q 2163 3669 2039 3770 
Q 1916 3872 1756 3872 
z
" transform="scale(0.015625)"/>
     </defs>
     <use xlink:href="#Arial-BoldMT-30"/>
    </g>
   </g>
  </g>
  <g id="axes_2">
   <g id="patch_3">
    <path d="M 7.2 59.175 
L 216.45 59.175 
L 216.45 17.595 
L 7.2 17.595 
L 7.2 59.175 
z
" style="fill: none"/>
   </g>
   <g id="matplotlib.axis_3">
    <g id="xtick_5"/>
    <g id="xtick_6"/>
    <g id="xtick_7"/>
    <g id="xtick_8"/>
   </g>
   <g id="matplotlib.axis_4"/>
   <g id="PolyCollection_1">
    <defs>
     <path id="mb50ec5a646" d="M 64.058582 -114.910438 
L 64.058582 -114.639844 
L 64.087401 -114.639844 
L 64.11622 -114.639844 
L 64.145039 -114.639844 
L 64.173858 -114.639844 
L 64.202677 -114.639844 
L 64.231495 -114.639844 
L 64.260314 -114.639844 
L 64.289133 -114.639844 
L 64.317952 -114.639844 
L 64.346771 -114.639844 
L 64.37559 -114.639844 
L 64.404409 -114.639844 
L 64.433228 -114.639844 
L 64.462047 -114.639844 
L 64.490866 -114.639844 
L 64.519685 -114.639844 
L 64.548504 -114.639844 
L 64.577323 -114.639844 
L 64.606142 -114.639844 
L 64.634961 -114.639844 
L 64.66378 -114.639844 
L 64.692599 -114.639844 
L 64.721418 -114.639844 
L 64.750237 -114.639844 
L 64.779056 -114.639844 
L 64.807875 -114.639844 
L 64.836694 -114.639844 
L 64.865513 -114.639844 
L 64.894332 -114.639844 
L 64.923151 -114.639844 
L 64.951969 -114.639844 
L 64.980788 -114.639844 
L 65.009607 -114.639844 
L 65.038426 -114.639844 
L 65.067245 -114.639844 
L 65.096064 -114.639844 
L 65.124883 -114.639844 
L 65.153702 -114.639844 
L 65.182521 -114.639844 
L 65.21134 -114.639844 
L 65.240159 -114.639844 
L 65.268978 -114.639844 
L 65.297797 -114.639844 
L 65.326616 -114.639844 
L 65.355435 -114.639844 
L 65.384254 -114.639844 
L 65.413073 -114.639844 
L 65.441892 -114.639844 
L 65.470711 -114.639844 
L 65.49953 -114.639844 
L 65.528349 -114.639844 
L 65.557168 -114.639844 
L 65.585987 -114.639844 
L 65.614806 -114.639844 
L 65.643625 -114.639844 
L 65.672443 -114.639844 
L 65.701262 -114.639844 
L 65.730081 -114.639844 
L 65.7589 -114.639844 
L 65.787719 -114.639844 
L 65.816538 -114.639844 
L 65.845357 -114.639844 
L 65.874176 -114.639844 
L 65.902995 -114.639844 
L 65.931814 -114.639844 
L 65.960633 -114.639844 
L 65.989452 -114.639844 
L 66.018271 -114.639844 
L 66.04709 -114.639844 
L 66.075909 -114.639844 
L 66.104728 -114.639844 
L 66.133547 -114.639844 
L 66.162366 -114.639844 
L 66.191185 -114.639844 
L 66.220004 -114.639844 
L 66.248823 -114.639844 
L 66.277642 -114.639844 
L 66.306461 -114.639844 
L 66.33528 -114.639844 
L 66.364099 -114.639844 
L 66.392917 -114.639844 
L 66.421736 -114.639844 
L 66.450555 -114.639844 
L 66.479374 -114.639844 
L 66.508193 -114.639844 
L 66.537012 -114.639844 
L 66.565831 -114.639844 
L 66.59465 -114.639844 
L 66.623469 -114.639844 
L 66.652288 -114.639844 
L 66.681107 -114.639844 
L 66.709926 -114.639844 
L 66.738745 -114.639844 
L 66.767564 -114.639844 
L 66.796383 -114.639844 
L 66.825202 -114.639844 
L 66.854021 -114.639844 
L 66.88284 -114.639844 
L 66.911659 -114.639844 
L 66.940478 -114.639844 
L 66.969297 -114.639844 
L 66.998116 -114.639844 
L 67.026935 -114.639844 
L 67.055754 -114.639844 
L 67.084573 -114.639844 
L 67.113391 -114.639844 
L 67.14221 -114.639844 
L 67.171029 -114.639844 
L 67.199848 -114.639844 
L 67.228667 -114.639844 
L 67.257486 -114.639844 
L 67.286305 -114.639844 
L 67.315124 -114.639844 
L 67.343943 -114.639844 
L 67.372762 -114.639844 
L 67.401581 -114.639844 
L 67.4304 -114.639844 
L 67.459219 -114.639844 
L 67.488038 -114.639844 
L 67.516857 -114.639844 
L 67.545676 -114.639844 
L 67.574495 -114.639844 
L 67.603314 -114.639844 
L 67.632133 -114.639844 
L 67.660952 -114.639844 
L 67.689771 -114.639844 
L 67.71859 -114.639844 
L 67.747409 -114.639844 
L 67.776228 -114.639844 
L 67.805047 -114.639844 
L 67.833865 -114.639844 
L 67.862684 -114.639844 
L 67.891503 -114.639844 
L 67.920322 -114.639844 
L 67.949141 -114.639844 
L 67.97796 -114.639844 
L 68.006779 -114.639844 
L 68.035598 -114.639844 
L 68.064417 -114.639844 
L 68.093236 -114.639844 
L 68.122055 -114.639844 
L 68.150874 -114.639844 
L 68.179693 -114.639844 
L 68.208512 -114.639844 
L 68.237331 -114.639844 
L 68.26615 -114.639844 
L 68.294969 -114.639844 
L 68.323788 -114.639844 
L 68.352607 -114.639844 
L 68.381426 -114.639844 
L 68.410245 -114.639844 
L 68.439064 -114.639844 
L 68.467883 -114.639844 
L 68.496702 -114.639844 
L 68.525521 -114.639844 
L 68.554339 -114.639844 
L 68.583158 -114.639844 
L 68.611977 -114.639844 
L 68.640796 -114.639844 
L 68.669615 -114.639844 
L 68.698434 -114.639844 
L 68.727253 -114.639844 
L 68.756072 -114.639844 
L 68.784891 -114.639844 
L 68.81371 -114.639844 
L 68.842529 -114.639844 
L 68.871348 -114.639844 
L 68.900167 -114.639844 
L 68.928986 -114.639844 
L 68.957805 -114.639844 
L 68.986624 -114.639844 
L 69.015443 -114.639844 
L 69.044262 -114.639844 
L 69.073081 -114.639844 
L 69.1019 -114.639844 
L 69.130719 -114.639844 
L 69.159538 -114.639844 
L 69.188357 -114.639844 
L 69.217176 -114.639844 
L 69.245995 -114.639844 
L 69.274813 -114.639844 
L 69.303632 -114.639844 
L 69.332451 -114.639844 
L 69.36127 -114.639844 
L 69.390089 -114.639844 
L 69.418908 -114.639844 
L 69.447727 -114.639844 
L 69.476546 -114.639844 
L 69.505365 -114.639844 
L 69.534184 -114.639844 
L 69.563003 -114.639844 
L 69.591822 -114.639844 
L 69.620641 -114.639844 
L 69.64946 -114.639844 
L 69.678279 -114.639844 
L 69.707098 -114.639844 
L 69.735917 -114.639844 
L 69.764736 -114.639844 
L 69.793555 -114.639844 
L 69.793555 -115.2754 
L 69.793555 -115.2754 
L 69.764736 -115.35236 
L 69.735917 -115.434915 
L 69.707098 -115.52314 
L 69.678279 -115.617127 
L 69.64946 -115.717 
L 69.620641 -115.822922 
L 69.591822 -115.935112 
L 69.563003 -116.053853 
L 69.534184 -116.1795 
L 69.505365 -116.312481 
L 69.476546 -116.453298 
L 69.447727 -116.602522 
L 69.418908 -116.760782 
L 69.390089 -116.928753 
L 69.36127 -117.107134 
L 69.332451 -117.296631 
L 69.303632 -117.497934 
L 69.274813 -117.711687 
L 69.245995 -117.938472 
L 69.217176 -118.178783 
L 69.188357 -118.433009 
L 69.159538 -118.701422 
L 69.130719 -118.984164 
L 69.1019 -119.28125 
L 69.073081 -119.592572 
L 69.044262 -119.917908 
L 69.015443 -120.256945 
L 68.986624 -120.609298 
L 68.957805 -120.974542 
L 68.928986 -121.352239 
L 68.900167 -121.741977 
L 68.871348 -122.143398 
L 68.842529 -122.556225 
L 68.81371 -122.980291 
L 68.784891 -123.415558 
L 68.756072 -123.862118 
L 68.727253 -124.320201 
L 68.698434 -124.790163 
L 68.669615 -125.272459 
L 68.640796 -125.767616 
L 68.611977 -126.276187 
L 68.583158 -126.798703 
L 68.554339 -127.33561 
L 68.525521 -127.887214 
L 68.496702 -128.453608 
L 68.467883 -129.034616 
L 68.439064 -129.629734 
L 68.410245 -130.238075 
L 68.381426 -130.858329 
L 68.352607 -131.488735 
L 68.323788 -132.127061 
L 68.294969 -132.770607 
L 68.26615 -133.416215 
L 68.237331 -134.060299 
L 68.208512 -134.698887 
L 68.179693 -135.327676 
L 68.150874 -135.942097 
L 68.122055 -136.53739 
L 68.093236 -137.108681 
L 68.064417 -137.651067 
L 68.035598 -138.1597 
L 68.006779 -138.629865 
L 67.97796 -139.057065 
L 67.949141 -139.43709 
L 67.920322 -139.766088 
L 67.891503 -140.040626 
L 67.862684 -140.257742 
L 67.833865 -140.414995 
L 67.805047 -140.510499 
L 67.776228 -140.542957 
L 67.747409 -140.511687 
L 67.71859 -140.416637 
L 67.689771 -140.258397 
L 67.660952 -140.038204 
L 67.632133 -139.757934 
L 67.603314 -139.420099 
L 67.574495 -139.027823 
L 67.545676 -138.584819 
L 67.516857 -138.095349 
L 67.488038 -137.564184 
L 67.459219 -136.996541 
L 67.4304 -136.398027 
L 67.401581 -135.774556 
L 67.372762 -135.132266 
L 67.343943 -134.477428 
L 67.315124 -133.816344 
L 67.286305 -133.155242 
L 67.257486 -132.500173 
L 67.228667 -131.856901 
L 67.199848 -131.230807 
L 67.171029 -130.626784 
L 67.14221 -130.049165 
L 67.113391 -129.501641 
L 67.084573 -128.98721 
L 67.055754 -128.50814 
L 67.026935 -128.065948 
L 66.998116 -127.661402 
L 66.969297 -127.294542 
L 66.940478 -126.964723 
L 66.911659 -126.670666 
L 66.88284 -126.410536 
L 66.854021 -126.182023 
L 66.825202 -125.982434 
L 66.796383 -125.808789 
L 66.767564 -125.657922 
L 66.738745 -125.526566 
L 66.709926 -125.411449 
L 66.681107 -125.309365 
L 66.652288 -125.217243 
L 66.623469 -125.132194 
L 66.59465 -125.051549 
L 66.565831 -124.972884 
L 66.537012 -124.89402 
L 66.508193 -124.813025 
L 66.479374 -124.728198 
L 66.450555 -124.638044 
L 66.421736 -124.54125 
L 66.392917 -124.436657 
L 66.364099 -124.323234 
L 66.33528 -124.200056 
L 66.306461 -124.06629 
L 66.277642 -123.921186 
L 66.248823 -123.76408 
L 66.220004 -123.5944 
L 66.191185 -123.411687 
L 66.162366 -123.215613 
L 66.133547 -123.006011 
L 66.104728 -122.782899 
L 66.075909 -122.546506 
L 66.04709 -122.297295 
L 66.018271 -122.035973 
L 65.989452 -121.763502 
L 65.960633 -121.481093 
L 65.931814 -121.190192 
L 65.902995 -120.892456 
L 65.874176 -120.589719 
L 65.845357 -120.28395 
L 65.816538 -119.977209 
L 65.787719 -119.67159 
L 65.7589 -119.369173 
L 65.730081 -119.071972 
L 65.701262 -118.781887 
L 65.672443 -118.50066 
L 65.643625 -118.229844 
L 65.614806 -117.970775 
L 65.585987 -117.724552 
L 65.557168 -117.492032 
L 65.528349 -117.273825 
L 65.49953 -117.070305 
L 65.470711 -116.881623 
L 65.441892 -116.707722 
L 65.413073 -116.548366 
L 65.384254 -116.403161 
L 65.355435 -116.271579 
L 65.326616 -116.15299 
L 65.297797 -116.046683 
L 65.268978 -115.951887 
L 65.240159 -115.867796 
L 65.21134 -115.793587 
L 65.182521 -115.72843 
L 65.153702 -115.671507 
L 65.124883 -115.622019 
L 65.096064 -115.579197 
L 65.067245 -115.542302 
L 65.038426 -115.510638 
L 65.009607 -115.483549 
L 64.980788 -115.460421 
L 64.951969 -115.440687 
L 64.923151 -115.423823 
L 64.894332 -115.409346 
L 64.865513 -115.396816 
L 64.836694 -115.38583 
L 64.807875 -115.37602 
L 64.779056 -115.367051 
L 64.750237 -115.358614 
L 64.721418 -115.350427 
L 64.692599 -115.342227 
L 64.66378 -115.333772 
L 64.634961 -115.324836 
L 64.606142 -115.315211 
L 64.577323 -115.304706 
L 64.548504 -115.293146 
L 64.519685 -115.28038 
L 64.490866 -115.266279 
L 64.462047 -115.250744 
L 64.433228 -115.233704 
L 64.404409 -115.215127 
L 64.37559 -115.195014 
L 64.346771 -115.173411 
L 64.317952 -115.150402 
L 64.289133 -115.12611 
L 64.260314 -115.100696 
L 64.231495 -115.074357 
L 64.202677 -115.047314 
L 64.173858 -115.019812 
L 64.145039 -114.992111 
L 64.11622 -114.964475 
L 64.087401 -114.937166 
L 64.058582 -114.910438 
z
" style="stroke: #2a788e; stroke-width: 1.25"/>
    </defs>
    <g>
     <use xlink:href="#mb50ec5a646" x="0" y="173.814844" style="fill: #2a788e; fill-opacity: 0.7; stroke: #2a788e; stroke-width: 1.25"/>
    </g>
   </g>
   <g id="line2d_2">
    <path d="M 7.2 59.175 
L 216.45 59.175 
" style="fill: none; stroke: #2a788e; stroke-opacity: 0.9; stroke-linecap: round"/>
   </g>
   <g id="text_2">
    <!-- 1 -->
    <g style="fill: #2a788e" transform="translate(7.2 58.127625) scale(0.12 -0.12)">
     <defs>
      <path id="Arial-BoldMT-31" d="M 2519 0 
L 1641 0 
L 1641 3309 
Q 1159 2859 506 2644 
L 506 3441 
Q 850 3553 1253 3867 
Q 1656 4181 1806 4600 
L 2519 4600 
L 2519 0 
z
" transform="scale(0.015625)"/>
     </defs>
     <use xlink:href="#Arial-BoldMT-31"/>
    </g>
   </g>
  </g>
  <g id="axes_3">
   <g id="patch_4">
    <path d="M 7.2 69.57 
L 216.45 69.57 
L 216.45 27.99 
L 7.2 27.99 
L 7.2 69.57 
z
" style="fill: none"/>
   </g>
   <g id="matplotlib.axis_5">
    <g id="xtick_9"/>
    <g id="xtick_10"/>
    <g id="xtick_11"/>
    <g id="xtick_12"/>
   </g>
   <g id="matplotlib.axis_6"/>
   <g id="PolyCollection_2">
    <defs>
     <path id="mcafd59ab49" d="M 109.391555 -104.387777 
L 109.391555 -104.244844 
L 109.447072 -104.244844 
L 109.502588 -104.244844 
L 109.558105 -104.244844 
L 109.613622 -104.244844 
L 109.669139 -104.244844 
L 109.724656 -104.244844 
L 109.780172 -104.244844 
L 109.835689 -104.244844 
L 109.891206 -104.244844 
L 109.946723 -104.244844 
L 110.00224 -104.244844 
L 110.057756 -104.244844 
L 110.113273 -104.244844 
L 110.16879 -104.244844 
L 110.224307 -104.244844 
L 110.279824 -104.244844 
L 110.33534 -104.244844 
L 110.390857 -104.244844 
L 110.446374 -104.244844 
L 110.501891 -104.244844 
L 110.557408 -104.244844 
L 110.612924 -104.244844 
L 110.668441 -104.244844 
L 110.723958 -104.244844 
L 110.779475 -104.244844 
L 110.834992 -104.244844 
L 110.890508 -104.244844 
L 110.946025 -104.244844 
L 111.001542 -104.244844 
L 111.057059 -104.244844 
L 111.112576 -104.244844 
L 111.168092 -104.244844 
L 111.223609 -104.244844 
L 111.279126 -104.244844 
L 111.334643 -104.244844 
L 111.39016 -104.244844 
L 111.445676 -104.244844 
L 111.501193 -104.244844 
L 111.55671 -104.244844 
L 111.612227 -104.244844 
L 111.667744 -104.244844 
L 111.72326 -104.244844 
L 111.778777 -104.244844 
L 111.834294 -104.244844 
L 111.889811 -104.244844 
L 111.945328 -104.244844 
L 112.000844 -104.244844 
L 112.056361 -104.244844 
L 112.111878 -104.244844 
L 112.167395 -104.244844 
L 112.222912 -104.244844 
L 112.278428 -104.244844 
L 112.333945 -104.244844 
L 112.389462 -104.244844 
L 112.444979 -104.244844 
L 112.500496 -104.244844 
L 112.556012 -104.244844 
L 112.611529 -104.244844 
L 112.667046 -104.244844 
L 112.722563 -104.244844 
L 112.77808 -104.244844 
L 112.833596 -104.244844 
L 112.889113 -104.244844 
L 112.94463 -104.244844 
L 113.000147 -104.244844 
L 113.055664 -104.244844 
L 113.11118 -104.244844 
L 113.166697 -104.244844 
L 113.222214 -104.244844 
L 113.277731 -104.244844 
L 113.333248 -104.244844 
L 113.388764 -104.244844 
L 113.444281 -104.244844 
L 113.499798 -104.244844 
L 113.555315 -104.244844 
L 113.610832 -104.244844 
L 113.666348 -104.244844 
L 113.721865 -104.244844 
L 113.777382 -104.244844 
L 113.832899 -104.244844 
L 113.888416 -104.244844 
L 113.943932 -104.244844 
L 113.999449 -104.244844 
L 114.054966 -104.244844 
L 114.110483 -104.244844 
L 114.166 -104.244844 
L 114.221517 -104.244844 
L 114.277033 -104.244844 
L 114.33255 -104.244844 
L 114.388067 -104.244844 
L 114.443584 -104.244844 
L 114.499101 -104.244844 
L 114.554617 -104.244844 
L 114.610134 -104.244844 
L 114.665651 -104.244844 
L 114.721168 -104.244844 
L 114.776685 -104.244844 
L 114.832201 -104.244844 
L 114.887718 -104.244844 
L 114.943235 -104.244844 
L 114.998752 -104.244844 
L 115.054269 -104.244844 
L 115.109785 -104.244844 
L 115.165302 -104.244844 
L 115.220819 -104.244844 
L 115.276336 -104.244844 
L 115.331853 -104.244844 
L 115.387369 -104.244844 
L 115.442886 -104.244844 
L 115.498403 -104.244844 
L 115.55392 -104.244844 
L 115.609437 -104.244844 
L 115.664953 -104.244844 
L 115.72047 -104.244844 
L 115.775987 -104.244844 
L 115.831504 -104.244844 
L 115.887021 -104.244844 
L 115.942537 -104.244844 
L 115.998054 -104.244844 
L 116.053571 -104.244844 
L 116.109088 -104.244844 
L 116.164605 -104.244844 
L 116.220121 -104.244844 
L 116.275638 -104.244844 
L 116.331155 -104.244844 
L 116.386672 -104.244844 
L 116.442189 -104.244844 
L 116.497705 -104.244844 
L 116.553222 -104.244844 
L 116.608739 -104.244844 
L 116.664256 -104.244844 
L 116.719773 -104.244844 
L 116.775289 -104.244844 
L 116.830806 -104.244844 
L 116.886323 -104.244844 
L 116.94184 -104.244844 
L 116.997357 -104.244844 
L 117.052873 -104.244844 
L 117.10839 -104.244844 
L 117.163907 -104.244844 
L 117.219424 -104.244844 
L 117.274941 -104.244844 
L 117.330457 -104.244844 
L 117.385974 -104.244844 
L 117.441491 -104.244844 
L 117.497008 -104.244844 
L 117.552525 -104.244844 
L 117.608041 -104.244844 
L 117.663558 -104.244844 
L 117.719075 -104.244844 
L 117.774592 -104.244844 
L 117.830109 -104.244844 
L 117.885625 -104.244844 
L 117.941142 -104.244844 
L 117.996659 -104.244844 
L 118.052176 -104.244844 
L 118.107693 -104.244844 
L 118.163209 -104.244844 
L 118.218726 -104.244844 
L 118.274243 -104.244844 
L 118.32976 -104.244844 
L 118.385277 -104.244844 
L 118.440793 -104.244844 
L 118.49631 -104.244844 
L 118.551827 -104.244844 
L 118.607344 -104.244844 
L 118.662861 -104.244844 
L 118.718377 -104.244844 
L 118.773894 -104.244844 
L 118.829411 -104.244844 
L 118.884928 -104.244844 
L 118.940445 -104.244844 
L 118.995962 -104.244844 
L 119.051478 -104.244844 
L 119.106995 -104.244844 
L 119.162512 -104.244844 
L 119.218029 -104.244844 
L 119.273546 -104.244844 
L 119.329062 -104.244844 
L 119.384579 -104.244844 
L 119.440096 -104.244844 
L 119.495613 -104.244844 
L 119.55113 -104.244844 
L 119.606646 -104.244844 
L 119.662163 -104.244844 
L 119.71768 -104.244844 
L 119.773197 -104.244844 
L 119.828714 -104.244844 
L 119.88423 -104.244844 
L 119.939747 -104.244844 
L 119.995264 -104.244844 
L 120.050781 -104.244844 
L 120.106298 -104.244844 
L 120.161814 -104.244844 
L 120.217331 -104.244844 
L 120.272848 -104.244844 
L 120.328365 -104.244844 
L 120.383882 -104.244844 
L 120.439398 -104.244844 
L 120.439398 -105.328459 
L 120.439398 -105.328459 
L 120.383882 -105.495387 
L 120.328365 -105.677713 
L 120.272848 -105.875026 
L 120.217331 -106.086593 
L 120.161814 -106.311358 
L 120.106298 -106.547963 
L 120.050781 -106.794776 
L 119.995264 -107.049947 
L 119.939747 -107.311477 
L 119.88423 -107.577298 
L 119.828714 -107.84537 
L 119.773197 -108.113786 
L 119.71768 -108.380875 
L 119.662163 -108.645304 
L 119.606646 -108.906177 
L 119.55113 -109.163104 
L 119.495613 -109.416266 
L 119.440096 -109.666439 
L 119.384579 -109.914996 
L 119.329062 -110.163876 
L 119.273546 -110.415516 
L 119.218029 -110.672759 
L 119.162512 -110.938723 
L 119.106995 -111.216662 
L 119.051478 -111.509795 
L 118.995962 -111.821143 
L 118.940445 -112.153351 
L 118.884928 -112.508527 
L 118.829411 -112.888101 
L 118.773894 -113.292698 
L 118.718377 -113.722052 
L 118.662861 -114.174948 
L 118.607344 -114.649203 
L 118.551827 -115.141687 
L 118.49631 -115.648377 
L 118.440793 -116.164446 
L 118.385277 -116.684383 
L 118.32976 -117.202132 
L 118.274243 -117.71125 
L 118.218726 -118.205077 
L 118.163209 -118.676903 
L 118.107693 -119.12014 
L 118.052176 -119.528481 
L 117.996659 -119.896046 
L 117.941142 -120.217514 
L 117.885625 -120.488233 
L 117.830109 -120.704312 
L 117.774592 -120.862685 
L 117.719075 -120.961162 
L 117.663558 -120.998449 
L 117.608041 -120.974157 
L 117.552525 -120.888784 
L 117.497008 -120.743683 
L 117.441491 -120.541012 
L 117.385974 -120.283677 
L 117.330457 -119.97525 
L 117.274941 -119.619889 
L 117.219424 -119.222245 
L 117.163907 -118.787364 
L 117.10839 -118.320587 
L 117.052873 -117.827447 
L 116.997357 -117.313572 
L 116.94184 -116.784586 
L 116.886323 -116.246022 
L 116.830806 -115.703235 
L 116.775289 -115.16133 
L 116.719773 -114.625101 
L 116.664256 -114.098971 
L 116.608739 -113.586954 
L 116.553222 -113.092619 
L 116.497705 -112.619071 
L 116.442189 -112.168934 
L 116.386672 -111.744349 
L 116.331155 -111.346974 
L 116.275638 -110.977999 
L 116.220121 -110.638153 
L 116.164605 -110.327732 
L 116.109088 -110.046614 
L 116.053571 -109.794292 
L 115.998054 -109.5699 
L 115.942537 -109.372241 
L 115.887021 -109.199825 
L 115.831504 -109.050898 
L 115.775987 -108.923481 
L 115.72047 -108.815404 
L 115.664953 -108.724346 
L 115.609437 -108.647875 
L 115.55392 -108.583488 
L 115.498403 -108.528658 
L 115.442886 -108.480872 
L 115.387369 -108.437683 
L 115.331853 -108.396751 
L 115.276336 -108.355887 
L 115.220819 -108.313099 
L 115.165302 -108.266622 
L 115.109785 -108.214961 
L 115.054269 -108.156907 
L 114.998752 -108.091561 
L 114.943235 -108.018343 
L 114.887718 -107.936985 
L 114.832201 -107.847524 
L 114.776685 -107.75028 
L 114.721168 -107.645822 
L 114.665651 -107.534931 
L 114.610134 -107.418558 
L 114.554617 -107.297771 
L 114.499101 -107.173706 
L 114.443584 -107.047522 
L 114.388067 -106.920353 
L 114.33255 -106.79327 
L 114.277033 -106.667248 
L 114.221517 -106.543141 
L 114.166 -106.421671 
L 114.110483 -106.303419 
L 114.054966 -106.188825 
L 113.999449 -106.078205 
L 113.943932 -105.971759 
L 113.888416 -105.869594 
L 113.832899 -105.771744 
L 113.777382 -105.678194 
L 113.721865 -105.588898 
L 113.666348 -105.503795 
L 113.610832 -105.422829 
L 113.555315 -105.345953 
L 113.499798 -105.273133 
L 113.444281 -105.204352 
L 113.388764 -105.139603 
L 113.333248 -105.078885 
L 113.277731 -105.022187 
L 113.222214 -104.969489 
L 113.166697 -104.920742 
L 113.11118 -104.875866 
L 113.055664 -104.834744 
L 113.000147 -104.797217 
L 112.94463 -104.763089 
L 112.889113 -104.732125 
L 112.833596 -104.704065 
L 112.77808 -104.678629 
L 112.722563 -104.655532 
L 112.667046 -104.634494 
L 112.611529 -104.615253 
L 112.556012 -104.597578 
L 112.500496 -104.581276 
L 112.444979 -104.566197 
L 112.389462 -104.552243 
L 112.333945 -104.539361 
L 112.278428 -104.527542 
L 112.222912 -104.516817 
L 112.167395 -104.507242 
L 112.111878 -104.49889 
L 112.056361 -104.491842 
L 112.000844 -104.486166 
L 111.945328 -104.481915 
L 111.889811 -104.479108 
L 111.834294 -104.477731 
L 111.778777 -104.477725 
L 111.72326 -104.478989 
L 111.667744 -104.481381 
L 111.612227 -104.484722 
L 111.55671 -104.488804 
L 111.501193 -104.493399 
L 111.445676 -104.498274 
L 111.39016 -104.503199 
L 111.334643 -104.507962 
L 111.279126 -104.512378 
L 111.223609 -104.516299 
L 111.168092 -104.51962 
L 111.112576 -104.522282 
L 111.057059 -104.524274 
L 111.001542 -104.525627 
L 110.946025 -104.526411 
L 110.890508 -104.526723 
L 110.834992 -104.52668 
L 110.779475 -104.526404 
L 110.723958 -104.526011 
L 110.668441 -104.5256 
L 110.612924 -104.525242 
L 110.557408 -104.524976 
L 110.501891 -104.524797 
L 110.446374 -104.524661 
L 110.390857 -104.524482 
L 110.33534 -104.52414 
L 110.279824 -104.523487 
L 110.224307 -104.522354 
L 110.16879 -104.520565 
L 110.113273 -104.51795 
L 110.057756 -104.514353 
L 110.00224 -104.509644 
L 109.946723 -104.503727 
L 109.891206 -104.49655 
L 109.835689 -104.488106 
L 109.780172 -104.478433 
L 109.724656 -104.467617 
L 109.669139 -104.455784 
L 109.613622 -104.443095 
L 109.558105 -104.429739 
L 109.502588 -104.415923 
L 109.447072 -104.401864 
L 109.391555 -104.387777 
z
" style="stroke: #22a884; stroke-width: 1.25"/>
    </defs>
    <g>
     <use xlink:href="#mcafd59ab49" x="0" y="173.814844" style="fill: #22a884; fill-opacity: 0.7; stroke: #22a884; stroke-width: 1.25"/>
    </g>
   </g>
   <g id="line2d_3">
    <path d="M 7.2 69.57 
L 216.45 69.57 
" style="fill: none; stroke: #22a884; stroke-opacity: 0.9; stroke-linecap: round"/>
   </g>
   <g id="text_3">
    <!-- 2 -->
    <g style="fill: #22a884" transform="translate(7.2 68.522625) scale(0.12 -0.12)">
     <defs>
      <path id="Arial-BoldMT-32" d="M 3238 816 
L 3238 0 
L 159 0 
Q 209 463 459 877 
Q 709 1291 1447 1975 
Q 2041 2528 2175 2725 
Q 2356 2997 2356 3263 
Q 2356 3556 2198 3714 
Q 2041 3872 1763 3872 
Q 1488 3872 1325 3706 
Q 1163 3541 1138 3156 
L 263 3244 
Q 341 3969 753 4284 
Q 1166 4600 1784 4600 
Q 2463 4600 2850 4234 
Q 3238 3869 3238 3325 
Q 3238 3016 3127 2736 
Q 3016 2456 2775 2150 
Q 2616 1947 2200 1565 
Q 1784 1184 1673 1059 
Q 1563 934 1494 816 
L 3238 816 
z
" transform="scale(0.015625)"/>
     </defs>
     <use xlink:href="#Arial-BoldMT-32"/>
    </g>
   </g>
  </g>
  <g id="axes_4">
   <g id="patch_5">
    <path d="M 7.2 79.965 
L 216.45 79.965 
L 216.45 38.385 
L 7.2 38.385 
L 7.2 79.965 
z
" style="fill: none"/>
   </g>
   <g id="matplotlib.axis_7">
    <g id="xtick_13"/>
    <g id="xtick_14"/>
    <g id="xtick_15"/>
    <g id="xtick_16"/>
   </g>
   <g id="matplotlib.axis_8"/>
   <g id="PolyCollection_3">
    <defs>
     <path id="mef8e0f0582" d="M 150.928073 -93.951824 
L 150.928073 -93.849844 
L 151.010576 -93.849844 
L 151.093078 -93.849844 
L 151.175581 -93.849844 
L 151.258084 -93.849844 
L 151.340587 -93.849844 
L 151.423089 -93.849844 
L 151.505592 -93.849844 
L 151.588095 -93.849844 
L 151.670598 -93.849844 
L 151.7531 -93.849844 
L 151.835603 -93.849844 
L 151.918106 -93.849844 
L 152.000608 -93.849844 
L 152.083111 -93.849844 
L 152.165614 -93.849844 
L 152.248117 -93.849844 
L 152.330619 -93.849844 
L 152.413122 -93.849844 
L 152.495625 -93.849844 
L 152.578128 -93.849844 
L 152.66063 -93.849844 
L 152.743133 -93.849844 
L 152.825636 -93.849844 
L 152.908139 -93.849844 
L 152.990641 -93.849844 
L 153.073144 -93.849844 
L 153.155647 -93.849844 
L 153.23815 -93.849844 
L 153.320652 -93.849844 
L 153.403155 -93.849844 
L 153.485658 -93.849844 
L 153.56816 -93.849844 
L 153.650663 -93.849844 
L 153.733166 -93.849844 
L 153.815669 -93.849844 
L 153.898171 -93.849844 
L 153.980674 -93.849844 
L 154.063177 -93.849844 
L 154.14568 -93.849844 
L 154.228182 -93.849844 
L 154.310685 -93.849844 
L 154.393188 -93.849844 
L 154.475691 -93.849844 
L 154.558193 -93.849844 
L 154.640696 -93.849844 
L 154.723199 -93.849844 
L 154.805701 -93.849844 
L 154.888204 -93.849844 
L 154.970707 -93.849844 
L 155.05321 -93.849844 
L 155.135712 -93.849844 
L 155.218215 -93.849844 
L 155.300718 -93.849844 
L 155.383221 -93.849844 
L 155.465723 -93.849844 
L 155.548226 -93.849844 
L 155.630729 -93.849844 
L 155.713232 -93.849844 
L 155.795734 -93.849844 
L 155.878237 -93.849844 
L 155.96074 -93.849844 
L 156.043242 -93.849844 
L 156.125745 -93.849844 
L 156.208248 -93.849844 
L 156.290751 -93.849844 
L 156.373253 -93.849844 
L 156.455756 -93.849844 
L 156.538259 -93.849844 
L 156.620762 -93.849844 
L 156.703264 -93.849844 
L 156.785767 -93.849844 
L 156.86827 -93.849844 
L 156.950773 -93.849844 
L 157.033275 -93.849844 
L 157.115778 -93.849844 
L 157.198281 -93.849844 
L 157.280783 -93.849844 
L 157.363286 -93.849844 
L 157.445789 -93.849844 
L 157.528292 -93.849844 
L 157.610794 -93.849844 
L 157.693297 -93.849844 
L 157.7758 -93.849844 
L 157.858303 -93.849844 
L 157.940805 -93.849844 
L 158.023308 -93.849844 
L 158.105811 -93.849844 
L 158.188314 -93.849844 
L 158.270816 -93.849844 
L 158.353319 -93.849844 
L 158.435822 -93.849844 
L 158.518325 -93.849844 
L 158.600827 -93.849844 
L 158.68333 -93.849844 
L 158.765833 -93.849844 
L 158.848335 -93.849844 
L 158.930838 -93.849844 
L 159.013341 -93.849844 
L 159.095844 -93.849844 
L 159.178346 -93.849844 
L 159.260849 -93.849844 
L 159.343352 -93.849844 
L 159.425855 -93.849844 
L 159.508357 -93.849844 
L 159.59086 -93.849844 
L 159.673363 -93.849844 
L 159.755866 -93.849844 
L 159.838368 -93.849844 
L 159.920871 -93.849844 
L 160.003374 -93.849844 
L 160.085876 -93.849844 
L 160.168379 -93.849844 
L 160.250882 -93.849844 
L 160.333385 -93.849844 
L 160.415887 -93.849844 
L 160.49839 -93.849844 
L 160.580893 -93.849844 
L 160.663396 -93.849844 
L 160.745898 -93.849844 
L 160.828401 -93.849844 
L 160.910904 -93.849844 
L 160.993407 -93.849844 
L 161.075909 -93.849844 
L 161.158412 -93.849844 
L 161.240915 -93.849844 
L 161.323417 -93.849844 
L 161.40592 -93.849844 
L 161.488423 -93.849844 
L 161.570926 -93.849844 
L 161.653428 -93.849844 
L 161.735931 -93.849844 
L 161.818434 -93.849844 
L 161.900937 -93.849844 
L 161.983439 -93.849844 
L 162.065942 -93.849844 
L 162.148445 -93.849844 
L 162.230948 -93.849844 
L 162.31345 -93.849844 
L 162.395953 -93.849844 
L 162.478456 -93.849844 
L 162.560958 -93.849844 
L 162.643461 -93.849844 
L 162.725964 -93.849844 
L 162.808467 -93.849844 
L 162.890969 -93.849844 
L 162.973472 -93.849844 
L 163.055975 -93.849844 
L 163.138478 -93.849844 
L 163.22098 -93.849844 
L 163.303483 -93.849844 
L 163.385986 -93.849844 
L 163.468489 -93.849844 
L 163.550991 -93.849844 
L 163.633494 -93.849844 
L 163.715997 -93.849844 
L 163.798499 -93.849844 
L 163.881002 -93.849844 
L 163.963505 -93.849844 
L 164.046008 -93.849844 
L 164.12851 -93.849844 
L 164.211013 -93.849844 
L 164.293516 -93.849844 
L 164.376019 -93.849844 
L 164.458521 -93.849844 
L 164.541024 -93.849844 
L 164.623527 -93.849844 
L 164.70603 -93.849844 
L 164.788532 -93.849844 
L 164.871035 -93.849844 
L 164.953538 -93.849844 
L 165.036041 -93.849844 
L 165.118543 -93.849844 
L 165.201046 -93.849844 
L 165.283549 -93.849844 
L 165.366051 -93.849844 
L 165.448554 -93.849844 
L 165.531057 -93.849844 
L 165.61356 -93.849844 
L 165.696062 -93.849844 
L 165.778565 -93.849844 
L 165.861068 -93.849844 
L 165.943571 -93.849844 
L 166.026073 -93.849844 
L 166.108576 -93.849844 
L 166.191079 -93.849844 
L 166.273582 -93.849844 
L 166.356084 -93.849844 
L 166.438587 -93.849844 
L 166.52109 -93.849844 
L 166.603592 -93.849844 
L 166.686095 -93.849844 
L 166.768598 -93.849844 
L 166.851101 -93.849844 
L 166.933603 -93.849844 
L 167.016106 -93.849844 
L 167.098609 -93.849844 
L 167.181112 -93.849844 
L 167.263614 -93.849844 
L 167.346117 -93.849844 
L 167.346117 -94.283835 
L 167.346117 -94.283835 
L 167.263614 -94.374624 
L 167.181112 -94.480557 
L 167.098609 -94.603308 
L 167.016106 -94.744568 
L 166.933603 -94.906004 
L 166.851101 -95.089218 
L 166.768598 -95.295702 
L 166.686095 -95.526789 
L 166.603592 -95.7836 
L 166.52109 -96.066992 
L 166.438587 -96.377509 
L 166.356084 -96.715331 
L 166.273582 -97.080232 
L 166.191079 -97.47154 
L 166.108576 -97.88811 
L 166.026073 -98.328299 
L 165.943571 -98.789959 
L 165.861068 -99.270432 
L 165.778565 -99.766568 
L 165.696062 -100.274743 
L 165.61356 -100.790905 
L 165.531057 -101.310616 
L 165.448554 -101.829119 
L 165.366051 -102.341413 
L 165.283549 -102.842337 
L 165.201046 -103.326669 
L 165.118543 -103.789226 
L 165.036041 -104.224973 
L 164.953538 -104.62914 
L 164.871035 -104.99733 
L 164.788532 -105.32563 
L 164.70603 -105.610712 
L 164.623527 -105.84992 
L 164.541024 -106.04135 
L 164.458521 -106.1839 
L 164.376019 -106.277305 
L 164.293516 -106.322146 
L 164.211013 -106.319826 
L 164.12851 -106.272524 
L 164.046008 -106.183124 
L 163.963505 -106.05511 
L 163.881002 -105.892448 
L 163.798499 -105.699445 
L 163.715997 -105.480602 
L 163.633494 -105.240457 
L 163.550991 -104.983439 
L 163.468489 -104.713722 
L 163.385986 -104.435107 
L 163.303483 -104.150921 
L 163.22098 -103.863951 
L 163.138478 -103.576402 
L 163.055975 -103.289894 
L 162.973472 -103.005494 
L 162.890969 -102.723767 
L 162.808467 -102.444866 
L 162.725964 -102.168623 
L 162.643461 -101.894664 
L 162.560958 -101.622519 
L 162.478456 -101.351722 
L 162.395953 -101.081907 
L 162.31345 -100.812873 
L 162.230948 -100.544636 
L 162.148445 -100.277444 
L 162.065942 -100.011777 
L 161.983439 -99.748313 
L 161.900937 -99.487888 
L 161.818434 -99.231427 
L 161.735931 -98.979886 
L 161.653428 -98.734176 
L 161.570926 -98.495106 
L 161.488423 -98.263336 
L 161.40592 -98.039336 
L 161.323417 -97.823379 
L 161.240915 -97.615536 
L 161.158412 -97.415703 
L 161.075909 -97.223636 
L 160.993407 -97.038995 
L 160.910904 -96.8614 
L 160.828401 -96.690484 
L 160.745898 -96.525945 
L 160.663396 -96.367588 
L 160.580893 -96.215354 
L 160.49839 -96.069336 
L 160.415887 -95.929783 
L 160.333385 -95.797076 
L 160.250882 -95.671708 
L 160.168379 -95.554236 
L 160.085876 -95.445236 
L 160.003374 -95.345248 
L 159.920871 -95.254726 
L 159.838368 -95.173987 
L 159.755866 -95.103171 
L 159.673363 -95.042216 
L 159.59086 -94.990837 
L 159.508357 -94.948525 
L 159.425855 -94.914559 
L 159.343352 -94.888032 
L 159.260849 -94.867884 
L 159.178346 -94.852945 
L 159.095844 -94.841988 
L 159.013341 -94.833776 
L 158.930838 -94.827114 
L 158.848335 -94.820891 
L 158.765833 -94.814124 
L 158.68333 -94.805983 
L 158.600827 -94.795811 
L 158.518325 -94.783139 
L 158.435822 -94.767679 
L 158.353319 -94.749319 
L 158.270816 -94.728103 
L 158.188314 -94.704212 
L 158.105811 -94.677933 
L 158.023308 -94.649631 
L 157.940805 -94.619725 
L 157.858303 -94.588655 
L 157.7758 -94.556863 
L 157.693297 -94.524774 
L 157.610794 -94.492779 
L 157.528292 -94.461225 
L 157.445789 -94.430414 
L 157.363286 -94.400594 
L 157.280783 -94.371966 
L 157.198281 -94.344687 
L 157.115778 -94.318871 
L 157.033275 -94.294596 
L 156.950773 -94.271907 
L 156.86827 -94.250824 
L 156.785767 -94.231338 
L 156.703264 -94.213418 
L 156.620762 -94.197009 
L 156.538259 -94.182033 
L 156.455756 -94.16839 
L 156.373253 -94.155959 
L 156.290751 -94.144597 
L 156.208248 -94.13415 
L 156.125745 -94.124449 
L 156.043242 -94.115322 
L 155.96074 -94.1066 
L 155.878237 -94.098124 
L 155.795734 -94.089757 
L 155.713232 -94.081388 
L 155.630729 -94.072943 
L 155.548226 -94.064386 
L 155.465723 -94.055728 
L 155.383221 -94.047021 
L 155.300718 -94.038359 
L 155.218215 -94.029873 
L 155.135712 -94.021722 
L 155.05321 -94.014083 
L 154.970707 -94.007141 
L 154.888204 -94.001077 
L 154.805701 -93.996052 
L 154.723199 -93.992201 
L 154.640696 -93.989621 
L 154.558193 -93.988362 
L 154.475691 -93.988425 
L 154.393188 -93.989757 
L 154.310685 -93.992254 
L 154.228182 -93.995767 
L 154.14568 -94.000106 
L 154.063177 -94.005053 
L 153.980674 -94.010372 
L 153.898171 -94.015823 
L 153.815669 -94.021172 
L 153.733166 -94.02621 
L 153.650663 -94.030757 
L 153.56816 -94.034675 
L 153.485658 -94.037877 
L 153.403155 -94.040323 
L 153.320652 -94.042025 
L 153.23815 -94.04304 
L 153.155647 -94.043465 
L 153.073144 -94.043427 
L 152.990641 -94.043068 
L 152.908139 -94.042536 
L 152.825636 -94.041969 
L 152.743133 -94.041483 
L 152.66063 -94.041166 
L 152.578128 -94.041062 
L 152.495625 -94.041174 
L 152.413122 -94.041458 
L 152.330619 -94.041828 
L 152.248117 -94.042162 
L 152.165614 -94.042307 
L 152.083111 -94.042095 
L 152.000608 -94.041351 
L 151.918106 -94.039908 
L 151.835603 -94.037618 
L 151.7531 -94.034363 
L 151.670598 -94.03006 
L 151.588095 -94.024674 
L 151.505592 -94.018211 
L 151.423089 -94.010726 
L 151.340587 -94.002315 
L 151.258084 -93.99311 
L 151.175581 -93.983273 
L 151.093078 -93.972986 
L 151.010576 -93.962438 
L 150.928073 -93.951824 
z
" style="stroke: #7ad151; stroke-width: 1.25"/>
    </defs>
    <g>
     <use xlink:href="#mef8e0f0582" x="0" y="173.814844" style="fill: #7ad151; fill-opacity: 0.7; stroke: #7ad151; stroke-width: 1.25"/>
    </g>
   </g>
   <g id="line2d_4">
    <path d="M 7.2 79.965 
L 216.45 79.965 
" style="fill: none; stroke: #7ad151; stroke-opacity: 0.9; stroke-linecap: round"/>
   </g>
   <g id="text_4">
    <!-- 3 -->
    <g style="fill: #7ad151" transform="translate(7.2 78.917625) scale(0.12 -0.12)">
     <defs>
      <path id="Arial-BoldMT-33" d="M 241 1216 
L 1091 1319 
Q 1131 994 1309 822 
Q 1488 650 1741 650 
Q 2013 650 2198 856 
Q 2384 1063 2384 1413 
Q 2384 1744 2206 1937 
Q 2028 2131 1772 2131 
Q 1603 2131 1369 2066 
L 1466 2781 
Q 1822 2772 2009 2936 
Q 2197 3100 2197 3372 
Q 2197 3603 2059 3740 
Q 1922 3878 1694 3878 
Q 1469 3878 1309 3722 
Q 1150 3566 1116 3266 
L 306 3403 
Q 391 3819 561 4067 
Q 731 4316 1036 4458 
Q 1341 4600 1719 4600 
Q 2366 4600 2756 4188 
Q 3078 3850 3078 3425 
Q 3078 2822 2419 2463 
Q 2813 2378 3048 2084 
Q 3284 1791 3284 1375 
Q 3284 772 2843 347 
Q 2403 -78 1747 -78 
Q 1125 -78 715 280 
Q 306 638 241 1216 
z
" transform="scale(0.015625)"/>
     </defs>
     <use xlink:href="#Arial-BoldMT-33"/>
    </g>
   </g>
  </g>
  <g id="axes_5">
   <g id="patch_6">
    <path d="M 7.2 90.36 
L 216.45 90.36 
L 216.45 48.78 
L 7.2 48.78 
L 7.2 90.36 
z
" style="fill: none"/>
   </g>
   <g id="matplotlib.axis_9">
    <g id="xtick_17"/>
    <g id="xtick_18"/>
    <g id="xtick_19"/>
    <g id="xtick_20"/>
   </g>
   <g id="matplotlib.axis_10"/>
   <g id="PolyCollection_4">
    <defs>
     <path id="m4d11dd5b63" d="M 181.270847 -83.517643 
L 181.270847 -83.454844 
L 181.399831 -83.454844 
L 181.528815 -83.454844 
L 181.657798 -83.454844 
L 181.786782 -83.454844 
L 181.915766 -83.454844 
L 182.04475 -83.454844 
L 182.173734 -83.454844 
L 182.302718 -83.454844 
L 182.431702 -83.454844 
L 182.560686 -83.454844 
L 182.689669 -83.454844 
L 182.818653 -83.454844 
L 182.947637 -83.454844 
L 183.076621 -83.454844 
L 183.205605 -83.454844 
L 183.334589 -83.454844 
L 183.463573 -83.454844 
L 183.592556 -83.454844 
L 183.72154 -83.454844 
L 183.850524 -83.454844 
L 183.979508 -83.454844 
L 184.108492 -83.454844 
L 184.237476 -83.454844 
L 184.36646 -83.454844 
L 184.495444 -83.454844 
L 184.624427 -83.454844 
L 184.753411 -83.454844 
L 184.882395 -83.454844 
L 185.011379 -83.454844 
L 185.140363 -83.454844 
L 185.269347 -83.454844 
L 185.398331 -83.454844 
L 185.527314 -83.454844 
L 185.656298 -83.454844 
L 185.785282 -83.454844 
L 185.914266 -83.454844 
L 186.04325 -83.454844 
L 186.172234 -83.454844 
L 186.301218 -83.454844 
L 186.430202 -83.454844 
L 186.559185 -83.454844 
L 186.688169 -83.454844 
L 186.817153 -83.454844 
L 186.946137 -83.454844 
L 187.075121 -83.454844 
L 187.204105 -83.454844 
L 187.333089 -83.454844 
L 187.462072 -83.454844 
L 187.591056 -83.454844 
L 187.72004 -83.454844 
L 187.849024 -83.454844 
L 187.978008 -83.454844 
L 188.106992 -83.454844 
L 188.235976 -83.454844 
L 188.36496 -83.454844 
L 188.493943 -83.454844 
L 188.622927 -83.454844 
L 188.751911 -83.454844 
L 188.880895 -83.454844 
L 189.009879 -83.454844 
L 189.138863 -83.454844 
L 189.267847 -83.454844 
L 189.39683 -83.454844 
L 189.525814 -83.454844 
L 189.654798 -83.454844 
L 189.783782 -83.454844 
L 189.912766 -83.454844 
L 190.04175 -83.454844 
L 190.170734 -83.454844 
L 190.299718 -83.454844 
L 190.428701 -83.454844 
L 190.557685 -83.454844 
L 190.686669 -83.454844 
L 190.815653 -83.454844 
L 190.944637 -83.454844 
L 191.073621 -83.454844 
L 191.202605 -83.454844 
L 191.331588 -83.454844 
L 191.460572 -83.454844 
L 191.589556 -83.454844 
L 191.71854 -83.454844 
L 191.847524 -83.454844 
L 191.976508 -83.454844 
L 192.105492 -83.454844 
L 192.234476 -83.454844 
L 192.363459 -83.454844 
L 192.492443 -83.454844 
L 192.621427 -83.454844 
L 192.750411 -83.454844 
L 192.879395 -83.454844 
L 193.008379 -83.454844 
L 193.137363 -83.454844 
L 193.266346 -83.454844 
L 193.39533 -83.454844 
L 193.524314 -83.454844 
L 193.653298 -83.454844 
L 193.782282 -83.454844 
L 193.911266 -83.454844 
L 194.04025 -83.454844 
L 194.169234 -83.454844 
L 194.298217 -83.454844 
L 194.427201 -83.454844 
L 194.556185 -83.454844 
L 194.685169 -83.454844 
L 194.814153 -83.454844 
L 194.943137 -83.454844 
L 195.072121 -83.454844 
L 195.201104 -83.454844 
L 195.330088 -83.454844 
L 195.459072 -83.454844 
L 195.588056 -83.454844 
L 195.71704 -83.454844 
L 195.846024 -83.454844 
L 195.975008 -83.454844 
L 196.103992 -83.454844 
L 196.232975 -83.454844 
L 196.361959 -83.454844 
L 196.490943 -83.454844 
L 196.619927 -83.454844 
L 196.748911 -83.454844 
L 196.877895 -83.454844 
L 197.006879 -83.454844 
L 197.135862 -83.454844 
L 197.264846 -83.454844 
L 197.39383 -83.454844 
L 197.522814 -83.454844 
L 197.651798 -83.454844 
L 197.780782 -83.454844 
L 197.909766 -83.454844 
L 198.03875 -83.454844 
L 198.167733 -83.454844 
L 198.296717 -83.454844 
L 198.425701 -83.454844 
L 198.554685 -83.454844 
L 198.683669 -83.454844 
L 198.812653 -83.454844 
L 198.941637 -83.454844 
L 199.07062 -83.454844 
L 199.199604 -83.454844 
L 199.328588 -83.454844 
L 199.457572 -83.454844 
L 199.586556 -83.454844 
L 199.71554 -83.454844 
L 199.844524 -83.454844 
L 199.973508 -83.454844 
L 200.102491 -83.454844 
L 200.231475 -83.454844 
L 200.360459 -83.454844 
L 200.489443 -83.454844 
L 200.618427 -83.454844 
L 200.747411 -83.454844 
L 200.876395 -83.454844 
L 201.005378 -83.454844 
L 201.134362 -83.454844 
L 201.263346 -83.454844 
L 201.39233 -83.454844 
L 201.521314 -83.454844 
L 201.650298 -83.454844 
L 201.779282 -83.454844 
L 201.908266 -83.454844 
L 202.037249 -83.454844 
L 202.166233 -83.454844 
L 202.295217 -83.454844 
L 202.424201 -83.454844 
L 202.553185 -83.454844 
L 202.682169 -83.454844 
L 202.811153 -83.454844 
L 202.940136 -83.454844 
L 203.06912 -83.454844 
L 203.198104 -83.454844 
L 203.327088 -83.454844 
L 203.456072 -83.454844 
L 203.585056 -83.454844 
L 203.71404 -83.454844 
L 203.843024 -83.454844 
L 203.972007 -83.454844 
L 204.100991 -83.454844 
L 204.229975 -83.454844 
L 204.358959 -83.454844 
L 204.487943 -83.454844 
L 204.616927 -83.454844 
L 204.745911 -83.454844 
L 204.874894 -83.454844 
L 205.003878 -83.454844 
L 205.132862 -83.454844 
L 205.261846 -83.454844 
L 205.39083 -83.454844 
L 205.519814 -83.454844 
L 205.648798 -83.454844 
L 205.777782 -83.454844 
L 205.906765 -83.454844 
L 206.035749 -83.454844 
L 206.164733 -83.454844 
L 206.293717 -83.454844 
L 206.422701 -83.454844 
L 206.551685 -83.454844 
L 206.680669 -83.454844 
L 206.809652 -83.454844 
L 206.938636 -83.454844 
L 206.938636 -84.133271 
L 206.938636 -84.133271 
L 206.809652 -84.254379 
L 206.680669 -84.390483 
L 206.551685 -84.542132 
L 206.422701 -84.709651 
L 206.293717 -84.893103 
L 206.164733 -85.092258 
L 206.035749 -85.306567 
L 205.906765 -85.535151 
L 205.777782 -85.776789 
L 205.648798 -86.029934 
L 205.519814 -86.292728 
L 205.39083 -86.563039 
L 205.261846 -86.838507 
L 205.132862 -87.116604 
L 205.003878 -87.394701 
L 204.874894 -87.670144 
L 204.745911 -87.940336 
L 204.616927 -88.202812 
L 204.487943 -88.455321 
L 204.358959 -88.695887 
L 204.229975 -88.922872 
L 204.100991 -89.135013 
L 203.972007 -89.331449 
L 203.843024 -89.511725 
L 203.71404 -89.67578 
L 203.585056 -89.82391 
L 203.456072 -89.956723 
L 203.327088 -90.075073 
L 203.198104 -90.179984 
L 203.06912 -90.272568 
L 202.940136 -90.353944 
L 202.811153 -90.425158 
L 202.682169 -90.487107 
L 202.553185 -90.540484 
L 202.424201 -90.585725 
L 202.295217 -90.622987 
L 202.166233 -90.652135 
L 202.037249 -90.672748 
L 201.908266 -90.684155 
L 201.779282 -90.685467 
L 201.650298 -90.675644 
L 201.521314 -90.653552 
L 201.39233 -90.618045 
L 201.263346 -90.56803 
L 201.134362 -90.502546 
L 201.005378 -90.420829 
L 200.876395 -90.322365 
L 200.747411 -90.206937 
L 200.618427 -90.074653 
L 200.489443 -89.925964 
L 200.360459 -89.761655 
L 200.231475 -89.582835 
L 200.102491 -89.3909 
L 199.973508 -89.187494 
L 199.844524 -88.974454 
L 199.71554 -88.753752 
L 199.586556 -88.52743 
L 199.457572 -88.297544 
L 199.328588 -88.066097 
L 199.199604 -87.834989 
L 199.07062 -87.605971 
L 198.941637 -87.380602 
L 198.812653 -87.160232 
L 198.683669 -86.945975 
L 198.554685 -86.738712 
L 198.425701 -86.53909 
L 198.296717 -86.347538 
L 198.167733 -86.164288 
L 198.03875 -85.989401 
L 197.909766 -85.822796 
L 197.780782 -85.664287 
L 197.651798 -85.513611 
L 197.522814 -85.37046 
L 197.39383 -85.234514 
L 197.264846 -85.105459 
L 197.135862 -84.983011 
L 197.006879 -84.866929 
L 196.877895 -84.757022 
L 196.748911 -84.653158 
L 196.619927 -84.555259 
L 196.490943 -84.4633 
L 196.361959 -84.377297 
L 196.232975 -84.297302 
L 196.103992 -84.223392 
L 195.975008 -84.155651 
L 195.846024 -84.094166 
L 195.71704 -84.03901 
L 195.588056 -83.990234 
L 195.459072 -83.947859 
L 195.330088 -83.911864 
L 195.201104 -83.882181 
L 195.072121 -83.858691 
L 194.943137 -83.841215 
L 194.814153 -83.829515 
L 194.685169 -83.823291 
L 194.556185 -83.822176 
L 194.427201 -83.825745 
L 194.298217 -83.83351 
L 194.169234 -83.844929 
L 194.04025 -83.85941 
L 193.911266 -83.876319 
L 193.782282 -83.894994 
L 193.653298 -83.914752 
L 193.524314 -83.934908 
L 193.39533 -83.954787 
L 193.266346 -83.973738 
L 193.137363 -83.991156 
L 193.008379 -84.006492 
L 192.879395 -84.019267 
L 192.750411 -84.02909 
L 192.621427 -84.035659 
L 192.492443 -84.038776 
L 192.363459 -84.038345 
L 192.234476 -84.03437 
L 192.105492 -84.026958 
L 191.976508 -84.016302 
L 191.847524 -84.002678 
L 191.71854 -83.986427 
L 191.589556 -83.967941 
L 191.460572 -83.947648 
L 191.331588 -83.925992 
L 191.202605 -83.903421 
L 191.073621 -83.880368 
L 190.944637 -83.857241 
L 190.815653 -83.83441 
L 190.686669 -83.812201 
L 190.557685 -83.790887 
L 190.428701 -83.770689 
L 190.299718 -83.751772 
L 190.170734 -83.734247 
L 190.04175 -83.718179 
L 189.912766 -83.703585 
L 189.783782 -83.690442 
L 189.654798 -83.678696 
L 189.525814 -83.668265 
L 189.39683 -83.659044 
L 189.267847 -83.650916 
L 189.138863 -83.643752 
L 189.009879 -83.637422 
L 188.880895 -83.631792 
L 188.751911 -83.626739 
L 188.622927 -83.622144 
L 188.493943 -83.617903 
L 188.36496 -83.613928 
L 188.235976 -83.610149 
L 188.106992 -83.606513 
L 187.978008 -83.60299 
L 187.849024 -83.599567 
L 187.72004 -83.596252 
L 187.591056 -83.593067 
L 187.462072 -83.590047 
L 187.333089 -83.587236 
L 187.204105 -83.584683 
L 187.075121 -83.582435 
L 186.946137 -83.580535 
L 186.817153 -83.579015 
L 186.688169 -83.577895 
L 186.559185 -83.577177 
L 186.430202 -83.57685 
L 186.301218 -83.576882 
L 186.172234 -83.577228 
L 186.04325 -83.57783 
L 185.914266 -83.578619 
L 185.785282 -83.579525 
L 185.656298 -83.580475 
L 185.527314 -83.581401 
L 185.398331 -83.582245 
L 185.269347 -83.582962 
L 185.140363 -83.583521 
L 185.011379 -83.583907 
L 184.882395 -83.584121 
L 184.753411 -83.584176 
L 184.624427 -83.584099 
L 184.495444 -83.58392 
L 184.36646 -83.583675 
L 184.237476 -83.583396 
L 184.108492 -83.583106 
L 183.979508 -83.58282 
L 183.850524 -83.582539 
L 183.72154 -83.582247 
L 183.592556 -83.581912 
L 183.463573 -83.58149 
L 183.334589 -83.58092 
L 183.205605 -83.580137 
L 183.076621 -83.579067 
L 182.947637 -83.57764 
L 182.818653 -83.575789 
L 182.689669 -83.573458 
L 182.560686 -83.570607 
L 182.431702 -83.567212 
L 182.302718 -83.563267 
L 182.173734 -83.558792 
L 182.04475 -83.553822 
L 181.915766 -83.548412 
L 181.786782 -83.542636 
L 181.657798 -83.536577 
L 181.528815 -83.530327 
L 181.399831 -83.523983 
L 181.270847 -83.517643 
z
" style="stroke: #bddf26; stroke-width: 1.25"/>
    </defs>
    <g>
     <use xlink:href="#m4d11dd5b63" x="0" y="173.814844" style="fill: #bddf26; fill-opacity: 0.7; stroke: #bddf26; stroke-width: 1.25"/>
    </g>
   </g>
   <g id="line2d_5">
    <path d="M 7.2 90.36 
L 216.45 90.36 
" style="fill: none; stroke: #bddf26; stroke-opacity: 0.9; stroke-linecap: round"/>
   </g>
   <g id="text_5">
    <!-- 4 -->
    <g style="fill: #bddf26" transform="translate(7.2 89.312625) scale(0.12 -0.12)">
     <defs>
      <path id="Arial-BoldMT-34" d="M 1994 0 
L 1994 922 
L 119 922 
L 119 1691 
L 2106 4600 
L 2844 4600 
L 2844 1694 
L 3413 1694 
L 3413 922 
L 2844 922 
L 2844 0 
L 1994 0 
z
M 1994 1694 
L 1994 3259 
L 941 1694 
L 1994 1694 
z
" transform="scale(0.015625)"/>
     </defs>
     <use xlink:href="#Arial-BoldMT-34"/>
    </g>
   </g>
  </g>
  <g id="axes_6">
   <g id="patch_7">
    <path d="M 7.2 100.755 
L 216.45 100.755 
L 216.45 59.175 
L 7.2 59.175 
L 7.2 100.755 
z
" style="fill: none"/>
   </g>
   <g id="matplotlib.axis_11">
    <g id="xtick_21"/>
    <g id="xtick_22"/>
    <g id="xtick_23"/>
    <g id="xtick_24"/>
   </g>
   <g id="matplotlib.axis_12"/>
   <g id="PolyCollection_5">
    <defs>
     <path id="md6ab3dd6fd" d="M 150.924454 -73.160826 
L 150.924454 -73.059844 
L 151.006214 -73.059844 
L 151.087974 -73.059844 
L 151.169734 -73.059844 
L 151.251494 -73.059844 
L 151.333254 -73.059844 
L 151.415014 -73.059844 
L 151.496774 -73.059844 
L 151.578533 -73.059844 
L 151.660293 -73.059844 
L 151.742053 -73.059844 
L 151.823813 -73.059844 
L 151.905573 -73.059844 
L 151.987333 -73.059844 
L 152.069093 -73.059844 
L 152.150853 -73.059844 
L 152.232612 -73.059844 
L 152.314372 -73.059844 
L 152.396132 -73.059844 
L 152.477892 -73.059844 
L 152.559652 -73.059844 
L 152.641412 -73.059844 
L 152.723172 -73.059844 
L 152.804931 -73.059844 
L 152.886691 -73.059844 
L 152.968451 -73.059844 
L 153.050211 -73.059844 
L 153.131971 -73.059844 
L 153.213731 -73.059844 
L 153.295491 -73.059844 
L 153.377251 -73.059844 
L 153.45901 -73.059844 
L 153.54077 -73.059844 
L 153.62253 -73.059844 
L 153.70429 -73.059844 
L 153.78605 -73.059844 
L 153.86781 -73.059844 
L 153.94957 -73.059844 
L 154.03133 -73.059844 
L 154.113089 -73.059844 
L 154.194849 -73.059844 
L 154.276609 -73.059844 
L 154.358369 -73.059844 
L 154.440129 -73.059844 
L 154.521889 -73.059844 
L 154.603649 -73.059844 
L 154.685408 -73.059844 
L 154.767168 -73.059844 
L 154.848928 -73.059844 
L 154.930688 -73.059844 
L 155.012448 -73.059844 
L 155.094208 -73.059844 
L 155.175968 -73.059844 
L 155.257728 -73.059844 
L 155.339487 -73.059844 
L 155.421247 -73.059844 
L 155.503007 -73.059844 
L 155.584767 -73.059844 
L 155.666527 -73.059844 
L 155.748287 -73.059844 
L 155.830047 -73.059844 
L 155.911807 -73.059844 
L 155.993566 -73.059844 
L 156.075326 -73.059844 
L 156.157086 -73.059844 
L 156.238846 -73.059844 
L 156.320606 -73.059844 
L 156.402366 -73.059844 
L 156.484126 -73.059844 
L 156.565885 -73.059844 
L 156.647645 -73.059844 
L 156.729405 -73.059844 
L 156.811165 -73.059844 
L 156.892925 -73.059844 
L 156.974685 -73.059844 
L 157.056445 -73.059844 
L 157.138205 -73.059844 
L 157.219964 -73.059844 
L 157.301724 -73.059844 
L 157.383484 -73.059844 
L 157.465244 -73.059844 
L 157.547004 -73.059844 
L 157.628764 -73.059844 
L 157.710524 -73.059844 
L 157.792284 -73.059844 
L 157.874043 -73.059844 
L 157.955803 -73.059844 
L 158.037563 -73.059844 
L 158.119323 -73.059844 
L 158.201083 -73.059844 
L 158.282843 -73.059844 
L 158.364603 -73.059844 
L 158.446362 -73.059844 
L 158.528122 -73.059844 
L 158.609882 -73.059844 
L 158.691642 -73.059844 
L 158.773402 -73.059844 
L 158.855162 -73.059844 
L 158.936922 -73.059844 
L 159.018682 -73.059844 
L 159.100441 -73.059844 
L 159.182201 -73.059844 
L 159.263961 -73.059844 
L 159.345721 -73.059844 
L 159.427481 -73.059844 
L 159.509241 -73.059844 
L 159.591001 -73.059844 
L 159.672761 -73.059844 
L 159.75452 -73.059844 
L 159.83628 -73.059844 
L 159.91804 -73.059844 
L 159.9998 -73.059844 
L 160.08156 -73.059844 
L 160.16332 -73.059844 
L 160.24508 -73.059844 
L 160.326839 -73.059844 
L 160.408599 -73.059844 
L 160.490359 -73.059844 
L 160.572119 -73.059844 
L 160.653879 -73.059844 
L 160.735639 -73.059844 
L 160.817399 -73.059844 
L 160.899159 -73.059844 
L 160.980918 -73.059844 
L 161.062678 -73.059844 
L 161.144438 -73.059844 
L 161.226198 -73.059844 
L 161.307958 -73.059844 
L 161.389718 -73.059844 
L 161.471478 -73.059844 
L 161.553238 -73.059844 
L 161.634997 -73.059844 
L 161.716757 -73.059844 
L 161.798517 -73.059844 
L 161.880277 -73.059844 
L 161.962037 -73.059844 
L 162.043797 -73.059844 
L 162.125557 -73.059844 
L 162.207316 -73.059844 
L 162.289076 -73.059844 
L 162.370836 -73.059844 
L 162.452596 -73.059844 
L 162.534356 -73.059844 
L 162.616116 -73.059844 
L 162.697876 -73.059844 
L 162.779636 -73.059844 
L 162.861395 -73.059844 
L 162.943155 -73.059844 
L 163.024915 -73.059844 
L 163.106675 -73.059844 
L 163.188435 -73.059844 
L 163.270195 -73.059844 
L 163.351955 -73.059844 
L 163.433715 -73.059844 
L 163.515474 -73.059844 
L 163.597234 -73.059844 
L 163.678994 -73.059844 
L 163.760754 -73.059844 
L 163.842514 -73.059844 
L 163.924274 -73.059844 
L 164.006034 -73.059844 
L 164.087794 -73.059844 
L 164.169553 -73.059844 
L 164.251313 -73.059844 
L 164.333073 -73.059844 
L 164.414833 -73.059844 
L 164.496593 -73.059844 
L 164.578353 -73.059844 
L 164.660113 -73.059844 
L 164.741872 -73.059844 
L 164.823632 -73.059844 
L 164.905392 -73.059844 
L 164.987152 -73.059844 
L 165.068912 -73.059844 
L 165.150672 -73.059844 
L 165.232432 -73.059844 
L 165.314192 -73.059844 
L 165.395951 -73.059844 
L 165.477711 -73.059844 
L 165.559471 -73.059844 
L 165.641231 -73.059844 
L 165.722991 -73.059844 
L 165.804751 -73.059844 
L 165.886511 -73.059844 
L 165.968271 -73.059844 
L 166.05003 -73.059844 
L 166.13179 -73.059844 
L 166.21355 -73.059844 
L 166.29531 -73.059844 
L 166.37707 -73.059844 
L 166.45883 -73.059844 
L 166.54059 -73.059844 
L 166.622349 -73.059844 
L 166.704109 -73.059844 
L 166.785869 -73.059844 
L 166.867629 -73.059844 
L 166.949389 -73.059844 
L 167.031149 -73.059844 
L 167.112909 -73.059844 
L 167.194669 -73.059844 
L 167.194669 -73.724021 
L 167.194669 -73.724021 
L 167.112909 -73.852883 
L 167.031149 -74.000467 
L 166.949389 -74.168235 
L 166.867629 -74.357537 
L 166.785869 -74.569572 
L 166.704109 -74.805348 
L 166.622349 -75.065636 
L 166.54059 -75.350934 
L 166.45883 -75.66143 
L 166.37707 -75.996966 
L 166.29531 -76.357019 
L 166.21355 -76.740672 
L 166.13179 -77.146609 
L 166.05003 -77.573103 
L 165.968271 -78.018022 
L 165.886511 -78.478836 
L 165.804751 -78.952639 
L 165.722991 -79.436169 
L 165.641231 -79.925848 
L 165.559471 -80.41782 
L 165.477711 -80.908001 
L 165.395951 -81.392132 
L 165.314192 -81.865847 
L 165.232432 -82.324736 
L 165.150672 -82.764424 
L 165.068912 -83.180642 
L 164.987152 -83.569314 
L 164.905392 -83.926636 
L 164.823632 -84.249156 
L 164.741872 -84.533853 
L 164.660113 -84.778208 
L 164.578353 -84.980269 
L 164.496593 -85.138698 
L 164.414833 -85.25281 
L 164.333073 -85.322596 
L 164.251313 -85.348719 
L 164.169553 -85.3325 
L 164.087794 -85.275873 
L 164.006034 -85.18133 
L 163.924274 -85.051842 
L 163.842514 -84.89076 
L 163.760754 -84.70171 
L 163.678994 -84.488481 
L 163.597234 -84.2549 
L 163.515474 -84.004718 
L 163.433715 -83.741504 
L 163.351955 -83.468548 
L 163.270195 -83.188783 
L 163.188435 -82.904733 
L 163.106675 -82.618477 
L 163.024915 -82.33165 
L 162.943155 -82.045453 
L 162.861395 -81.760697 
L 162.779636 -81.477859 
L 162.697876 -81.197156 
L 162.616116 -80.91862 
L 162.534356 -80.642176 
L 162.452596 -80.367725 
L 162.370836 -80.0952 
L 162.289076 -79.824626 
L 162.207316 -79.556151 
L 162.125557 -79.290065 
L 162.043797 -79.026801 
L 161.962037 -78.766919 
L 161.880277 -78.511078 
L 161.798517 -78.260002 
L 161.716757 -78.014435 
L 161.634997 -77.775103 
L 161.553238 -77.542674 
L 161.471478 -77.317732 
L 161.389718 -77.100747 
L 161.307958 -76.892072 
L 161.226198 -76.691936 
L 161.144438 -76.500452 
L 161.062678 -76.317633 
L 160.980918 -76.143414 
L 160.899159 -75.977671 
L 160.817399 -75.820249 
L 160.735639 -75.670981 
L 160.653879 -75.529707 
L 160.572119 -75.39629 
L 160.490359 -75.27062 
L 160.408599 -75.152619 
L 160.326839 -75.042237 
L 160.24508 -74.939442 
L 160.16332 -74.844208 
L 160.08156 -74.756502 
L 159.9998 -74.676261 
L 159.91804 -74.603382 
L 159.83628 -74.5377 
L 159.75452 -74.478979 
L 159.672761 -74.4269 
L 159.591001 -74.381055 
L 159.509241 -74.340947 
L 159.427481 -74.305997 
L 159.345721 -74.27555 
L 159.263961 -74.248895 
L 159.182201 -74.225281 
L 159.100441 -74.203941 
L 159.018682 -74.184117 
L 158.936922 -74.165082 
L 158.855162 -74.146169 
L 158.773402 -74.126786 
L 158.691642 -74.10644 
L 158.609882 -74.084743 
L 158.528122 -74.061424 
L 158.446362 -74.03633 
L 158.364603 -74.009418 
L 158.282843 -73.980751 
L 158.201083 -73.950481 
L 158.119323 -73.918831 
L 158.037563 -73.886083 
L 157.955803 -73.852552 
L 157.874043 -73.818569 
L 157.792284 -73.78447 
L 157.710524 -73.750574 
L 157.628764 -73.717178 
L 157.547004 -73.684544 
L 157.465244 -73.6529 
L 157.383484 -73.622434 
L 157.301724 -73.593295 
L 157.219964 -73.565598 
L 157.138205 -73.539423 
L 157.056445 -73.514821 
L 156.974685 -73.491817 
L 156.892925 -73.470413 
L 156.811165 -73.450588 
L 156.729405 -73.432303 
L 156.647645 -73.415499 
L 156.565885 -73.400097 
L 156.484126 -73.385999 
L 156.402366 -73.373091 
L 156.320606 -73.361241 
L 156.238846 -73.350306 
L 156.157086 -73.34013 
L 156.075326 -73.330558 
L 155.993566 -73.321432 
L 155.911807 -73.31261 
L 155.830047 -73.303961 
L 155.748287 -73.295382 
L 155.666527 -73.2868 
L 155.584767 -73.278177 
L 155.503007 -73.269514 
L 155.421247 -73.260851 
L 155.339487 -73.252266 
L 155.257728 -73.243869 
L 155.175968 -73.235799 
L 155.094208 -73.228213 
L 155.012448 -73.221275 
L 154.930688 -73.21515 
L 154.848928 -73.209987 
L 154.767168 -73.205913 
L 154.685408 -73.203022 
L 154.603649 -73.201368 
L 154.521889 -73.200962 
L 154.440129 -73.201763 
L 154.358369 -73.203688 
L 154.276609 -73.206607 
L 154.194849 -73.210354 
L 154.113089 -73.214733 
L 154.03133 -73.219528 
L 153.94957 -73.224516 
L 153.86781 -73.229479 
L 153.78605 -73.234213 
L 153.70429 -73.238542 
L 153.62253 -73.242325 
L 153.54077 -73.245463 
L 153.45901 -73.247903 
L 153.377251 -73.24964 
L 153.295491 -73.250712 
L 153.213731 -73.251196 
L 153.131971 -73.251201 
L 153.050211 -73.250854 
L 152.968451 -73.250296 
L 152.886691 -73.24966 
L 152.804931 -73.24907 
L 152.723172 -73.248621 
L 152.641412 -73.248378 
L 152.559652 -73.248364 
L 152.477892 -73.248565 
L 152.396132 -73.24892 
L 152.314372 -73.249334 
L 152.232612 -73.249679 
L 152.150853 -73.249803 
L 152.069093 -73.249544 
L 151.987333 -73.248735 
L 151.905573 -73.247223 
L 151.823813 -73.24487 
L 151.742053 -73.241573 
L 151.660293 -73.237262 
L 151.578533 -73.231908 
L 151.496774 -73.225526 
L 151.415014 -73.218172 
L 151.333254 -73.209941 
L 151.251494 -73.20096 
L 151.169734 -73.191383 
L 151.087974 -73.181381 
L 151.006214 -73.171135 
L 150.924454 -73.160826 
z
" style="stroke: #44bf70; stroke-width: 1.25"/>
    </defs>
    <g>
     <use xlink:href="#md6ab3dd6fd" x="0" y="173.814844" style="fill: #44bf70; fill-opacity: 0.7; stroke: #44bf70; stroke-width: 1.25"/>
    </g>
   </g>
   <g id="line2d_6">
    <path d="M 7.2 100.755 
L 216.45 100.755 
" style="fill: none; stroke: #44bf70; stroke-opacity: 0.9; stroke-linecap: round"/>
   </g>
   <g id="text_6">
    <!-- 5 -->
    <g style="fill: #44bf70" transform="translate(7.2 99.707625) scale(0.12 -0.12)">
     <defs>
      <path id="Arial-BoldMT-35" d="M 284 1178 
L 1159 1269 
Q 1197 972 1381 798 
Q 1566 625 1806 625 
Q 2081 625 2272 848 
Q 2463 1072 2463 1522 
Q 2463 1944 2273 2155 
Q 2084 2366 1781 2366 
Q 1403 2366 1103 2031 
L 391 2134 
L 841 4519 
L 3163 4519 
L 3163 3697 
L 1506 3697 
L 1369 2919 
Q 1663 3066 1969 3066 
Q 2553 3066 2959 2641 
Q 3366 2216 3366 1538 
Q 3366 972 3038 528 
Q 2591 -78 1797 -78 
Q 1163 -78 763 262 
Q 363 603 284 1178 
z
" transform="scale(0.015625)"/>
     </defs>
     <use xlink:href="#Arial-BoldMT-35"/>
    </g>
   </g>
  </g>
  <g id="axes_7">
   <g id="patch_8">
    <path d="M 7.2 111.15 
L 216.45 111.15 
L 216.45 69.57 
L 7.2 69.57 
L 7.2 111.15 
z
" style="fill: none"/>
   </g>
   <g id="matplotlib.axis_13">
    <g id="xtick_25"/>
    <g id="xtick_26"/>
    <g id="xtick_27"/>
    <g id="xtick_28"/>
   </g>
   <g id="matplotlib.axis_14"/>
   <g id="PolyCollection_6">
    <defs>
     <path id="m21b0afd2ba" d="M 109.488626 -62.809867 
L 109.488626 -62.664844 
L 109.544065 -62.664844 
L 109.599504 -62.664844 
L 109.654943 -62.664844 
L 109.710382 -62.664844 
L 109.765821 -62.664844 
L 109.82126 -62.664844 
L 109.876699 -62.664844 
L 109.932139 -62.664844 
L 109.987578 -62.664844 
L 110.043017 -62.664844 
L 110.098456 -62.664844 
L 110.153895 -62.664844 
L 110.209334 -62.664844 
L 110.264773 -62.664844 
L 110.320212 -62.664844 
L 110.375651 -62.664844 
L 110.43109 -62.664844 
L 110.486529 -62.664844 
L 110.541968 -62.664844 
L 110.597408 -62.664844 
L 110.652847 -62.664844 
L 110.708286 -62.664844 
L 110.763725 -62.664844 
L 110.819164 -62.664844 
L 110.874603 -62.664844 
L 110.930042 -62.664844 
L 110.985481 -62.664844 
L 111.04092 -62.664844 
L 111.096359 -62.664844 
L 111.151798 -62.664844 
L 111.207238 -62.664844 
L 111.262677 -62.664844 
L 111.318116 -62.664844 
L 111.373555 -62.664844 
L 111.428994 -62.664844 
L 111.484433 -62.664844 
L 111.539872 -62.664844 
L 111.595311 -62.664844 
L 111.65075 -62.664844 
L 111.706189 -62.664844 
L 111.761628 -62.664844 
L 111.817067 -62.664844 
L 111.872507 -62.664844 
L 111.927946 -62.664844 
L 111.983385 -62.664844 
L 112.038824 -62.664844 
L 112.094263 -62.664844 
L 112.149702 -62.664844 
L 112.205141 -62.664844 
L 112.26058 -62.664844 
L 112.316019 -62.664844 
L 112.371458 -62.664844 
L 112.426897 -62.664844 
L 112.482336 -62.664844 
L 112.537776 -62.664844 
L 112.593215 -62.664844 
L 112.648654 -62.664844 
L 112.704093 -62.664844 
L 112.759532 -62.664844 
L 112.814971 -62.664844 
L 112.87041 -62.664844 
L 112.925849 -62.664844 
L 112.981288 -62.664844 
L 113.036727 -62.664844 
L 113.092166 -62.664844 
L 113.147606 -62.664844 
L 113.203045 -62.664844 
L 113.258484 -62.664844 
L 113.313923 -62.664844 
L 113.369362 -62.664844 
L 113.424801 -62.664844 
L 113.48024 -62.664844 
L 113.535679 -62.664844 
L 113.591118 -62.664844 
L 113.646557 -62.664844 
L 113.701996 -62.664844 
L 113.757435 -62.664844 
L 113.812875 -62.664844 
L 113.868314 -62.664844 
L 113.923753 -62.664844 
L 113.979192 -62.664844 
L 114.034631 -62.664844 
L 114.09007 -62.664844 
L 114.145509 -62.664844 
L 114.200948 -62.664844 
L 114.256387 -62.664844 
L 114.311826 -62.664844 
L 114.367265 -62.664844 
L 114.422705 -62.664844 
L 114.478144 -62.664844 
L 114.533583 -62.664844 
L 114.589022 -62.664844 
L 114.644461 -62.664844 
L 114.6999 -62.664844 
L 114.755339 -62.664844 
L 114.810778 -62.664844 
L 114.866217 -62.664844 
L 114.921656 -62.664844 
L 114.977095 -62.664844 
L 115.032534 -62.664844 
L 115.087974 -62.664844 
L 115.143413 -62.664844 
L 115.198852 -62.664844 
L 115.254291 -62.664844 
L 115.30973 -62.664844 
L 115.365169 -62.664844 
L 115.420608 -62.664844 
L 115.476047 -62.664844 
L 115.531486 -62.664844 
L 115.586925 -62.664844 
L 115.642364 -62.664844 
L 115.697804 -62.664844 
L 115.753243 -62.664844 
L 115.808682 -62.664844 
L 115.864121 -62.664844 
L 115.91956 -62.664844 
L 115.974999 -62.664844 
L 116.030438 -62.664844 
L 116.085877 -62.664844 
L 116.141316 -62.664844 
L 116.196755 -62.664844 
L 116.252194 -62.664844 
L 116.307633 -62.664844 
L 116.363073 -62.664844 
L 116.418512 -62.664844 
L 116.473951 -62.664844 
L 116.52939 -62.664844 
L 116.584829 -62.664844 
L 116.640268 -62.664844 
L 116.695707 -62.664844 
L 116.751146 -62.664844 
L 116.806585 -62.664844 
L 116.862024 -62.664844 
L 116.917463 -62.664844 
L 116.972903 -62.664844 
L 117.028342 -62.664844 
L 117.083781 -62.664844 
L 117.13922 -62.664844 
L 117.194659 -62.664844 
L 117.250098 -62.664844 
L 117.305537 -62.664844 
L 117.360976 -62.664844 
L 117.416415 -62.664844 
L 117.471854 -62.664844 
L 117.527293 -62.664844 
L 117.582732 -62.664844 
L 117.638172 -62.664844 
L 117.693611 -62.664844 
L 117.74905 -62.664844 
L 117.804489 -62.664844 
L 117.859928 -62.664844 
L 117.915367 -62.664844 
L 117.970806 -62.664844 
L 118.026245 -62.664844 
L 118.081684 -62.664844 
L 118.137123 -62.664844 
L 118.192562 -62.664844 
L 118.248002 -62.664844 
L 118.303441 -62.664844 
L 118.35888 -62.664844 
L 118.414319 -62.664844 
L 118.469758 -62.664844 
L 118.525197 -62.664844 
L 118.580636 -62.664844 
L 118.636075 -62.664844 
L 118.691514 -62.664844 
L 118.746953 -62.664844 
L 118.802392 -62.664844 
L 118.857831 -62.664844 
L 118.913271 -62.664844 
L 118.96871 -62.664844 
L 119.024149 -62.664844 
L 119.079588 -62.664844 
L 119.135027 -62.664844 
L 119.190466 -62.664844 
L 119.245905 -62.664844 
L 119.301344 -62.664844 
L 119.356783 -62.664844 
L 119.412222 -62.664844 
L 119.467661 -62.664844 
L 119.523101 -62.664844 
L 119.57854 -62.664844 
L 119.633979 -62.664844 
L 119.689418 -62.664844 
L 119.744857 -62.664844 
L 119.800296 -62.664844 
L 119.855735 -62.664844 
L 119.911174 -62.664844 
L 119.966613 -62.664844 
L 120.022052 -62.664844 
L 120.077491 -62.664844 
L 120.13293 -62.664844 
L 120.18837 -62.664844 
L 120.243809 -62.664844 
L 120.299248 -62.664844 
L 120.354687 -62.664844 
L 120.410126 -62.664844 
L 120.465565 -62.664844 
L 120.521004 -62.664844 
L 120.521004 -63.443686 
L 120.521004 -63.443686 
L 120.465565 -63.562199 
L 120.410126 -63.691816 
L 120.354687 -63.83249 
L 120.299248 -63.984029 
L 120.243809 -64.146116 
L 120.18837 -64.31832 
L 120.13293 -64.500127 
L 120.077491 -64.69097 
L 120.022052 -64.890266 
L 119.966613 -65.09746 
L 119.911174 -65.312065 
L 119.855735 -65.533702 
L 119.800296 -65.762142 
L 119.744857 -65.997336 
L 119.689418 -66.239438 
L 119.633979 -66.488823 
L 119.57854 -66.746087 
L 119.523101 -67.012036 
L 119.467661 -67.287668 
L 119.412222 -67.574131 
L 119.356783 -67.87268 
L 119.301344 -68.184614 
L 119.245905 -68.511213 
L 119.190466 -68.853657 
L 119.135027 -69.212954 
L 119.079588 -69.589859 
L 119.024149 -69.984796 
L 118.96871 -70.397791 
L 118.913271 -70.828412 
L 118.857831 -71.275723 
L 118.802392 -71.738249 
L 118.746953 -72.213968 
L 118.691514 -72.700314 
L 118.636075 -73.194206 
L 118.580636 -73.692094 
L 118.525197 -74.190019 
L 118.469758 -74.683703 
L 118.414319 -75.168635 
L 118.35888 -75.640179 
L 118.303441 -76.093682 
L 118.248002 -76.524584 
L 118.192562 -76.92852 
L 118.137123 -77.301424 
L 118.081684 -77.639608 
L 118.026245 -77.939838 
L 117.970806 -78.199383 
L 117.915367 -78.416058 
L 117.859928 -78.588235 
L 117.804489 -78.714849 
L 117.74905 -78.795382 
L 117.693611 -78.829831 
L 117.638172 -78.818675 
L 117.582732 -78.762823 
L 117.527293 -78.663565 
L 117.471854 -78.522515 
L 117.416415 -78.341565 
L 117.360976 -78.122829 
L 117.305537 -77.868606 
L 117.250098 -77.581339 
L 117.194659 -77.263588 
L 117.13922 -76.918008 
L 117.083781 -76.547334 
L 117.028342 -76.154378 
L 116.972903 -75.742016 
L 116.917463 -75.313197 
L 116.862024 -74.870939 
L 116.806585 -74.418327 
L 116.751146 -73.958507 
L 116.695707 -73.49468 
L 116.640268 -73.030078 
L 116.584829 -72.567943 
L 116.52939 -72.111487 
L 116.473951 -71.663857 
L 116.418512 -71.228082 
L 116.363073 -70.807017 
L 116.307633 -70.403292 
L 116.252194 -70.019248 
L 116.196755 -69.656891 
L 116.141316 -69.317835 
L 116.085877 -69.003266 
L 116.030438 -68.713915 
L 115.974999 -68.450033 
L 115.91956 -68.211398 
L 115.864121 -67.997319 
L 115.808682 -67.806664 
L 115.753243 -67.637899 
L 115.697804 -67.489144 
L 115.642364 -67.358226 
L 115.586925 -67.242758 
L 115.531486 -67.140208 
L 115.476047 -67.047978 
L 115.420608 -66.963481 
L 115.365169 -66.884216 
L 115.30973 -66.807834 
L 115.254291 -66.732199 
L 115.198852 -66.655437 
L 115.143413 -66.57598 
L 115.087974 -66.492587 
L 115.032534 -66.404363 
L 114.977095 -66.31076 
L 114.921656 -66.211567 
L 114.866217 -66.106894 
L 114.810778 -65.997135 
L 114.755339 -65.882938 
L 114.6999 -65.765156 
L 114.644461 -65.644796 
L 114.589022 -65.522977 
L 114.533583 -65.400869 
L 114.478144 -65.279645 
L 114.422705 -65.160435 
L 114.367265 -65.044283 
L 114.311826 -64.932108 
L 114.256387 -64.824676 
L 114.200948 -64.722575 
L 114.145509 -64.626207 
L 114.09007 -64.535779 
L 114.034631 -64.45131 
L 113.979192 -64.372644 
L 113.923753 -64.299468 
L 113.868314 -64.231339 
L 113.812875 -64.167717 
L 113.757435 -64.107996 
L 113.701996 -64.05154 
L 113.646557 -63.997717 
L 113.591118 -63.94593 
L 113.535679 -63.895643 
L 113.48024 -63.846406 
L 113.424801 -63.797862 
L 113.369362 -63.749763 
L 113.313923 -63.701966 
L 113.258484 -63.654429 
L 113.203045 -63.607197 
L 113.147606 -63.560391 
L 113.092166 -63.514187 
L 113.036727 -63.468794 
L 112.981288 -63.42444 
L 112.925849 -63.381352 
L 112.87041 -63.339737 
L 112.814971 -63.29978 
L 112.759532 -63.261627 
L 112.704093 -63.22539 
L 112.648654 -63.191143 
L 112.593215 -63.158928 
L 112.537776 -63.128761 
L 112.482336 -63.10064 
L 112.426897 -63.074551 
L 112.371458 -63.05048 
L 112.316019 -63.028411 
L 112.26058 -63.00834 
L 112.205141 -62.990265 
L 112.149702 -62.974195 
L 112.094263 -62.960138 
L 112.038824 -62.948104 
L 111.983385 -62.938089 
L 111.927946 -62.930078 
L 111.872507 -62.92403 
L 111.817067 -62.919879 
L 111.761628 -62.917524 
L 111.706189 -62.916835 
L 111.65075 -62.917644 
L 111.595311 -62.919758 
L 111.539872 -62.922959 
L 111.484433 -62.927012 
L 111.428994 -62.931678 
L 111.373555 -62.936719 
L 111.318116 -62.941911 
L 111.262677 -62.947051 
L 111.207238 -62.951966 
L 111.151798 -62.956517 
L 111.096359 -62.960604 
L 111.04092 -62.964162 
L 110.985481 -62.967162 
L 110.930042 -62.969606 
L 110.874603 -62.971516 
L 110.819164 -62.972928 
L 110.763725 -62.973885 
L 110.708286 -62.974424 
L 110.652847 -62.974569 
L 110.597408 -62.974328 
L 110.541968 -62.973682 
L 110.486529 -62.972591 
L 110.43109 -62.97099 
L 110.375651 -62.968791 
L 110.320212 -62.965895 
L 110.264773 -62.962194 
L 110.209334 -62.95758 
L 110.153895 -62.951959 
L 110.098456 -62.945251 
L 110.043017 -62.937407 
L 109.987578 -62.928409 
L 109.932139 -62.918274 
L 109.876699 -62.90706 
L 109.82126 -62.894862 
L 109.765821 -62.881807 
L 109.710382 -62.868054 
L 109.654943 -62.853784 
L 109.599504 -62.839195 
L 109.544065 -62.824488 
L 109.488626 -62.809867 
z
" style="stroke: #21918c; stroke-width: 1.25"/>
    </defs>
    <g>
     <use xlink:href="#m21b0afd2ba" x="0" y="173.814844" style="fill: #21918c; fill-opacity: 0.7; stroke: #21918c; stroke-width: 1.25"/>
    </g>
   </g>
   <g id="line2d_7">
    <path d="M 7.2 111.15 
L 216.45 111.15 
" style="fill: none; stroke: #21918c; stroke-opacity: 0.9; stroke-linecap: round"/>
   </g>
   <g id="text_7">
    <!-- 6 -->
    <g style="fill: #21918c" transform="translate(7.2 110.102625) scale(0.12 -0.12)">
     <defs>
      <path id="Arial-BoldMT-36" d="M 3247 3459 
L 2397 3366 
Q 2366 3628 2234 3753 
Q 2103 3878 1894 3878 
Q 1616 3878 1423 3628 
Q 1231 3378 1181 2588 
Q 1509 2975 1997 2975 
Q 2547 2975 2939 2556 
Q 3331 2138 3331 1475 
Q 3331 772 2918 347 
Q 2506 -78 1859 -78 
Q 1166 -78 719 461 
Q 272 1000 272 2228 
Q 272 3488 737 4044 
Q 1203 4600 1947 4600 
Q 2469 4600 2811 4308 
Q 3153 4016 3247 3459 
z
M 1256 1544 
Q 1256 1116 1453 883 
Q 1650 650 1903 650 
Q 2147 650 2309 840 
Q 2472 1031 2472 1466 
Q 2472 1913 2297 2120 
Q 2122 2328 1859 2328 
Q 1606 2328 1431 2129 
Q 1256 1931 1256 1544 
z
" transform="scale(0.015625)"/>
     </defs>
     <use xlink:href="#Arial-BoldMT-36"/>
    </g>
   </g>
  </g>
  <g id="axes_8">
   <g id="patch_9">
    <path d="M 7.2 121.545 
L 216.45 121.545 
L 216.45 79.965 
L 7.2 79.965 
L 7.2 121.545 
z
" style="fill: none"/>
   </g>
   <g id="matplotlib.axis_15">
    <g id="xtick_29"/>
    <g id="xtick_30"/>
    <g id="xtick_31"/>
    <g id="xtick_32"/>
   </g>
   <g id="matplotlib.axis_16"/>
   <g id="PolyCollection_7">
    <defs>
     <path id="m09d29a6340" d="M 64.127311 -52.666345 
L 64.127311 -52.269844 
L 64.160308 -52.269844 
L 64.193304 -52.269844 
L 64.226301 -52.269844 
L 64.259298 -52.269844 
L 64.292295 -52.269844 
L 64.325291 -52.269844 
L 64.358288 -52.269844 
L 64.391285 -52.269844 
L 64.424282 -52.269844 
L 64.457278 -52.269844 
L 64.490275 -52.269844 
L 64.523272 -52.269844 
L 64.556269 -52.269844 
L 64.589265 -52.269844 
L 64.622262 -52.269844 
L 64.655259 -52.269844 
L 64.688256 -52.269844 
L 64.721252 -52.269844 
L 64.754249 -52.269844 
L 64.787246 -52.269844 
L 64.820243 -52.269844 
L 64.853239 -52.269844 
L 64.886236 -52.269844 
L 64.919233 -52.269844 
L 64.95223 -52.269844 
L 64.985226 -52.269844 
L 65.018223 -52.269844 
L 65.05122 -52.269844 
L 65.084217 -52.269844 
L 65.117213 -52.269844 
L 65.15021 -52.269844 
L 65.183207 -52.269844 
L 65.216204 -52.269844 
L 65.2492 -52.269844 
L 65.282197 -52.269844 
L 65.315194 -52.269844 
L 65.348191 -52.269844 
L 65.381187 -52.269844 
L 65.414184 -52.269844 
L 65.447181 -52.269844 
L 65.480178 -52.269844 
L 65.513175 -52.269844 
L 65.546171 -52.269844 
L 65.579168 -52.269844 
L 65.612165 -52.269844 
L 65.645162 -52.269844 
L 65.678158 -52.269844 
L 65.711155 -52.269844 
L 65.744152 -52.269844 
L 65.777149 -52.269844 
L 65.810145 -52.269844 
L 65.843142 -52.269844 
L 65.876139 -52.269844 
L 65.909136 -52.269844 
L 65.942132 -52.269844 
L 65.975129 -52.269844 
L 66.008126 -52.269844 
L 66.041123 -52.269844 
L 66.074119 -52.269844 
L 66.107116 -52.269844 
L 66.140113 -52.269844 
L 66.17311 -52.269844 
L 66.206106 -52.269844 
L 66.239103 -52.269844 
L 66.2721 -52.269844 
L 66.305097 -52.269844 
L 66.338093 -52.269844 
L 66.37109 -52.269844 
L 66.404087 -52.269844 
L 66.437084 -52.269844 
L 66.47008 -52.269844 
L 66.503077 -52.269844 
L 66.536074 -52.269844 
L 66.569071 -52.269844 
L 66.602067 -52.269844 
L 66.635064 -52.269844 
L 66.668061 -52.269844 
L 66.701058 -52.269844 
L 66.734054 -52.269844 
L 66.767051 -52.269844 
L 66.800048 -52.269844 
L 66.833045 -52.269844 
L 66.866041 -52.269844 
L 66.899038 -52.269844 
L 66.932035 -52.269844 
L 66.965032 -52.269844 
L 66.998029 -52.269844 
L 67.031025 -52.269844 
L 67.064022 -52.269844 
L 67.097019 -52.269844 
L 67.130016 -52.269844 
L 67.163012 -52.269844 
L 67.196009 -52.269844 
L 67.229006 -52.269844 
L 67.262003 -52.269844 
L 67.294999 -52.269844 
L 67.327996 -52.269844 
L 67.360993 -52.269844 
L 67.39399 -52.269844 
L 67.426986 -52.269844 
L 67.459983 -52.269844 
L 67.49298 -52.269844 
L 67.525977 -52.269844 
L 67.558973 -52.269844 
L 67.59197 -52.269844 
L 67.624967 -52.269844 
L 67.657964 -52.269844 
L 67.69096 -52.269844 
L 67.723957 -52.269844 
L 67.756954 -52.269844 
L 67.789951 -52.269844 
L 67.822947 -52.269844 
L 67.855944 -52.269844 
L 67.888941 -52.269844 
L 67.921938 -52.269844 
L 67.954934 -52.269844 
L 67.987931 -52.269844 
L 68.020928 -52.269844 
L 68.053925 -52.269844 
L 68.086921 -52.269844 
L 68.119918 -52.269844 
L 68.152915 -52.269844 
L 68.185912 -52.269844 
L 68.218908 -52.269844 
L 68.251905 -52.269844 
L 68.284902 -52.269844 
L 68.317899 -52.269844 
L 68.350895 -52.269844 
L 68.383892 -52.269844 
L 68.416889 -52.269844 
L 68.449886 -52.269844 
L 68.482883 -52.269844 
L 68.515879 -52.269844 
L 68.548876 -52.269844 
L 68.581873 -52.269844 
L 68.61487 -52.269844 
L 68.647866 -52.269844 
L 68.680863 -52.269844 
L 68.71386 -52.269844 
L 68.746857 -52.269844 
L 68.779853 -52.269844 
L 68.81285 -52.269844 
L 68.845847 -52.269844 
L 68.878844 -52.269844 
L 68.91184 -52.269844 
L 68.944837 -52.269844 
L 68.977834 -52.269844 
L 69.010831 -52.269844 
L 69.043827 -52.269844 
L 69.076824 -52.269844 
L 69.109821 -52.269844 
L 69.142818 -52.269844 
L 69.175814 -52.269844 
L 69.208811 -52.269844 
L 69.241808 -52.269844 
L 69.274805 -52.269844 
L 69.307801 -52.269844 
L 69.340798 -52.269844 
L 69.373795 -52.269844 
L 69.406792 -52.269844 
L 69.439788 -52.269844 
L 69.472785 -52.269844 
L 69.505782 -52.269844 
L 69.538779 -52.269844 
L 69.571775 -52.269844 
L 69.604772 -52.269844 
L 69.637769 -52.269844 
L 69.670766 -52.269844 
L 69.703762 -52.269844 
L 69.736759 -52.269844 
L 69.769756 -52.269844 
L 69.802753 -52.269844 
L 69.835749 -52.269844 
L 69.868746 -52.269844 
L 69.901743 -52.269844 
L 69.93474 -52.269844 
L 69.967737 -52.269844 
L 70.000733 -52.269844 
L 70.03373 -52.269844 
L 70.066727 -52.269844 
L 70.099724 -52.269844 
L 70.13272 -52.269844 
L 70.165717 -52.269844 
L 70.198714 -52.269844 
L 70.231711 -52.269844 
L 70.264707 -52.269844 
L 70.297704 -52.269844 
L 70.330701 -52.269844 
L 70.363698 -52.269844 
L 70.396694 -52.269844 
L 70.429691 -52.269844 
L 70.462688 -52.269844 
L 70.495685 -52.269844 
L 70.528681 -52.269844 
L 70.561678 -52.269844 
L 70.594675 -52.269844 
L 70.627672 -52.269844 
L 70.660668 -52.269844 
L 70.693665 -52.269844 
L 70.693665 -52.573188 
L 70.693665 -52.573188 
L 70.660668 -52.608061 
L 70.627672 -52.644821 
L 70.594675 -52.68329 
L 70.561678 -52.723262 
L 70.528681 -52.764508 
L 70.495685 -52.806777 
L 70.462688 -52.849811 
L 70.429691 -52.893347 
L 70.396694 -52.937126 
L 70.363698 -52.980903 
L 70.330701 -53.024459 
L 70.297704 -53.067602 
L 70.264707 -53.110183 
L 70.231711 -53.1521 
L 70.198714 -53.193307 
L 70.165717 -53.233815 
L 70.13272 -53.273702 
L 70.099724 -53.313114 
L 70.066727 -53.352263 
L 70.03373 -53.391432 
L 70.000733 -53.430969 
L 69.967737 -53.471286 
L 69.93474 -53.512853 
L 69.901743 -53.556191 
L 69.868746 -53.601865 
L 69.835749 -53.650481 
L 69.802753 -53.702669 
L 69.769756 -53.759081 
L 69.736759 -53.820382 
L 69.703762 -53.887242 
L 69.670766 -53.960329 
L 69.637769 -54.040306 
L 69.604772 -54.127824 
L 69.571775 -54.223522 
L 69.538779 -54.328023 
L 69.505782 -54.441935 
L 69.472785 -54.565854 
L 69.439788 -54.700356 
L 69.406792 -54.84601 
L 69.373795 -55.003368 
L 69.340798 -55.172971 
L 69.307801 -55.355349 
L 69.274805 -55.551016 
L 69.241808 -55.760472 
L 69.208811 -55.984196 
L 69.175814 -56.222647 
L 69.142818 -56.476257 
L 69.109821 -56.745428 
L 69.076824 -57.03053 
L 69.043827 -57.331895 
L 69.010831 -57.649816 
L 68.977834 -57.984545 
L 68.944837 -58.336287 
L 68.91184 -58.705203 
L 68.878844 -59.091402 
L 68.845847 -59.494936 
L 68.81285 -59.915797 
L 68.779853 -60.3539 
L 68.746857 -60.809073 
L 68.71386 -61.281037 
L 68.680863 -61.769383 
L 68.647866 -62.273542 
L 68.61487 -62.792755 
L 68.581873 -63.326043 
L 68.548876 -63.872164 
L 68.515879 -64.429584 
L 68.482883 -64.996445 
L 68.449886 -65.570538 
L 68.416889 -66.149288 
L 68.383892 -66.729748 
L 68.350895 -67.308603 
L 68.317899 -67.882194 
L 68.284902 -68.446558 
L 68.251905 -68.997476 
L 68.218908 -69.530552 
L 68.185912 -70.041289 
L 68.152915 -70.525193 
L 68.119918 -70.977874 
L 68.086921 -71.395163 
L 68.053925 -71.773223 
L 68.020928 -72.108658 
L 67.987931 -72.398616 
L 67.954934 -72.64088 
L 67.921938 -72.833943 
L 67.888941 -72.977057 
L 67.855944 -73.070269 
L 67.822947 -73.114426 
L 67.789951 -73.111157 
L 67.756954 -73.062834 
L 67.723957 -72.9725 
L 67.69096 -72.84379 
L 67.657964 -72.680819 
L 67.624967 -72.488069 
L 67.59197 -72.270258 
L 67.558973 -72.032208 
L 67.525977 -71.778709 
L 67.49298 -71.514395 
L 67.459983 -71.243617 
L 67.426986 -70.970341 
L 67.39399 -70.698057 
L 67.360993 -70.429703 
L 67.327996 -70.167617 
L 67.294999 -69.913509 
L 67.262003 -69.668451 
L 67.229006 -69.432894 
L 67.196009 -69.2067 
L 67.163012 -68.989195 
L 67.130016 -68.779241 
L 67.097019 -68.575307 
L 67.064022 -68.375565 
L 67.031025 -68.177981 
L 66.998029 -67.980408 
L 66.965032 -67.780681 
L 66.932035 -67.576703 
L 66.899038 -67.366527 
L 66.866041 -67.14842 
L 66.833045 -66.920928 
L 66.800048 -66.68291 
L 66.767051 -66.433573 
L 66.734054 -66.172484 
L 66.701058 -65.899573 
L 66.668061 -65.615116 
L 66.635064 -65.319714 
L 66.602067 -65.01426 
L 66.569071 -64.699894 
L 66.536074 -64.377956 
L 66.503077 -64.049936 
L 66.47008 -63.717421 
L 66.437084 -63.382042 
L 66.404087 -63.045429 
L 66.37109 -62.70916 
L 66.338093 -62.374732 
L 66.305097 -62.043519 
L 66.2721 -61.716757 
L 66.239103 -61.395521 
L 66.206106 -61.080723 
L 66.17311 -60.773103 
L 66.140113 -60.473239 
L 66.107116 -60.181557 
L 66.074119 -59.898342 
L 66.041123 -59.623759 
L 66.008126 -59.357871 
L 65.975129 -59.100658 
L 65.942132 -58.852035 
L 65.909136 -58.611872 
L 65.876139 -58.380008 
L 65.843142 -58.156262 
L 65.810145 -57.940443 
L 65.777149 -57.732357 
L 65.744152 -57.531809 
L 65.711155 -57.338605 
L 65.678158 -57.152551 
L 65.645162 -56.97345 
L 65.612165 -56.801097 
L 65.579168 -56.635283 
L 65.546171 -56.475782 
L 65.513175 -56.32236 
L 65.480178 -56.174767 
L 65.447181 -56.032741 
L 65.414184 -55.89601 
L 65.381187 -55.764294 
L 65.348191 -55.637313 
L 65.315194 -55.514785 
L 65.282197 -55.396437 
L 65.2492 -55.282007 
L 65.216204 -55.171248 
L 65.183207 -55.063927 
L 65.15021 -54.959833 
L 65.117213 -54.858772 
L 65.084217 -54.760568 
L 65.05122 -54.665058 
L 65.018223 -54.572092 
L 64.985226 -54.481528 
L 64.95223 -54.393228 
L 64.919233 -54.307055 
L 64.886236 -54.22287 
L 64.853239 -54.140534 
L 64.820243 -54.059904 
L 64.787246 -53.980836 
L 64.754249 -53.903188 
L 64.721252 -53.826826 
L 64.688256 -53.751626 
L 64.655259 -53.677483 
L 64.622262 -53.604313 
L 64.589265 -53.532063 
L 64.556269 -53.460712 
L 64.523272 -53.390277 
L 64.490275 -53.320813 
L 64.457278 -53.252413 
L 64.424282 -53.185207 
L 64.391285 -53.119358 
L 64.358288 -53.055057 
L 64.325291 -52.992513 
L 64.292295 -52.93195 
L 64.259298 -52.873591 
L 64.226301 -52.817657 
L 64.193304 -52.764354 
L 64.160308 -52.713865 
L 64.127311 -52.666345 
z
" style="stroke: #355f8d; stroke-width: 1.25"/>
    </defs>
    <g>
     <use xlink:href="#m09d29a6340" x="0" y="173.814844" style="fill: #355f8d; fill-opacity: 0.7; stroke: #355f8d; stroke-width: 1.25"/>
    </g>
   </g>
   <g id="line2d_8">
    <path d="M 7.2 121.545 
L 216.45 121.545 
" style="fill: none; stroke: #355f8d; stroke-opacity: 0.9; stroke-linecap: round"/>
   </g>
   <g id="text_8">
    <!-- 7 -->
    <g style="fill: #355f8d" transform="translate(7.2 120.497625) scale(0.12 -0.12)">
     <defs>
      <path id="Arial-BoldMT-37" d="M 272 3703 
L 272 4519 
L 3275 4519 
L 3275 3881 
Q 2903 3516 2518 2831 
Q 2134 2147 1932 1376 
Q 1731 606 1734 0 
L 888 0 
Q 909 950 1279 1937 
Q 1650 2925 2269 3703 
L 272 3703 
z
" transform="scale(0.015625)"/>
     </defs>
     <use xlink:href="#Arial-BoldMT-37"/>
    </g>
   </g>
  </g>
  <g id="axes_9">
   <g id="patch_10">
    <path d="M 7.2 131.94 
L 216.45 131.94 
L 216.45 90.36 
L 7.2 90.36 
L 7.2 131.94 
z
" style="fill: none"/>
   </g>
   <g id="matplotlib.axis_17">
    <g id="xtick_33">
     <g id="text_9">
      <!-- 0 -->
      <g style="fill: #838383" transform="translate(15.583987 149.313594) scale(0.11 -0.11)">
       <defs>
        <path id="ArialMT-30" d="M 266 2259 
Q 266 3072 433 3567 
Q 600 4063 929 4331 
Q 1259 4600 1759 4600 
Q 2128 4600 2406 4451 
Q 2684 4303 2865 4023 
Q 3047 3744 3150 3342 
Q 3253 2941 3253 2259 
Q 3253 1453 3087 958 
Q 2922 463 2592 192 
Q 2263 -78 1759 -78 
Q 1097 -78 719 397 
Q 266 969 266 2259 
z
M 844 2259 
Q 844 1131 1108 757 
Q 1372 384 1759 384 
Q 2147 384 2411 759 
Q 2675 1134 2675 2259 
Q 2675 3391 2411 3762 
Q 2147 4134 1753 4134 
Q 1366 4134 1134 3806 
Q 844 3388 844 2259 
z
" transform="scale(0.015625)"/>
       </defs>
       <use xlink:href="#ArialMT-30"/>
      </g>
     </g>
    </g>
    <g id="xtick_34">
     <g id="text_10">
      <!-- 5 -->
      <g style="fill: #838383" transform="translate(70.214843 149.313594) scale(0.11 -0.11)">
       <defs>
        <path id="ArialMT-35" d="M 266 1200 
L 856 1250 
Q 922 819 1161 601 
Q 1400 384 1738 384 
Q 2144 384 2425 690 
Q 2706 997 2706 1503 
Q 2706 1984 2436 2262 
Q 2166 2541 1728 2541 
Q 1456 2541 1237 2417 
Q 1019 2294 894 2097 
L 366 2166 
L 809 4519 
L 3088 4519 
L 3088 3981 
L 1259 3981 
L 1013 2750 
Q 1425 3038 1878 3038 
Q 2478 3038 2890 2622 
Q 3303 2206 3303 1553 
Q 3303 931 2941 478 
Q 2500 -78 1738 -78 
Q 1113 -78 717 272 
Q 322 622 266 1200 
z
" transform="scale(0.015625)"/>
       </defs>
       <use xlink:href="#ArialMT-35"/>
      </g>
     </g>
    </g>
    <g id="xtick_35">
     <g id="text_11">
      <!-- 10 -->
      <g style="fill: #838383" transform="translate(121.787184 149.313594) scale(0.11 -0.11)">
       <defs>
        <path id="ArialMT-31" d="M 2384 0 
L 1822 0 
L 1822 3584 
Q 1619 3391 1289 3197 
Q 959 3003 697 2906 
L 697 3450 
Q 1169 3672 1522 3987 
Q 1875 4303 2022 4600 
L 2384 4600 
L 2384 0 
z
" transform="scale(0.015625)"/>
       </defs>
       <use xlink:href="#ArialMT-31"/>
       <use xlink:href="#ArialMT-30" x="55.615234"/>
      </g>
     </g>
    </g>
    <g id="xtick_36">
     <g id="text_12">
      <!-- 15 -->
      <g style="fill: #838383" transform="translate(176.41804 149.313594) scale(0.11 -0.11)">
       <use xlink:href="#ArialMT-31"/>
       <use xlink:href="#ArialMT-35" x="55.615234"/>
      </g>
     </g>
    </g>
    <g id="text_13">
     <!-- logdet -->
     <g style="fill: #bdbdbd" transform="translate(95.47875 164.089219) scale(0.12 -0.12)">
      <defs>
       <path id="ArialMT-6c" d="M 409 0 
L 409 4581 
L 972 4581 
L 972 0 
L 409 0 
z
" transform="scale(0.015625)"/>
       <path id="ArialMT-6f" d="M 213 1659 
Q 213 2581 725 3025 
Q 1153 3394 1769 3394 
Q 2453 3394 2887 2945 
Q 3322 2497 3322 1706 
Q 3322 1066 3130 698 
Q 2938 331 2570 128 
Q 2203 -75 1769 -75 
Q 1072 -75 642 372 
Q 213 819 213 1659 
z
M 791 1659 
Q 791 1022 1069 705 
Q 1347 388 1769 388 
Q 2188 388 2466 706 
Q 2744 1025 2744 1678 
Q 2744 2294 2464 2611 
Q 2184 2928 1769 2928 
Q 1347 2928 1069 2612 
Q 791 2297 791 1659 
z
" transform="scale(0.015625)"/>
       <path id="ArialMT-67" d="M 319 -275 
L 866 -356 
Q 900 -609 1056 -725 
Q 1266 -881 1628 -881 
Q 2019 -881 2231 -725 
Q 2444 -569 2519 -288 
Q 2563 -116 2559 434 
Q 2191 0 1641 0 
Q 956 0 581 494 
Q 206 988 206 1678 
Q 206 2153 378 2554 
Q 550 2956 876 3175 
Q 1203 3394 1644 3394 
Q 2231 3394 2613 2919 
L 2613 3319 
L 3131 3319 
L 3131 450 
Q 3131 -325 2973 -648 
Q 2816 -972 2473 -1159 
Q 2131 -1347 1631 -1347 
Q 1038 -1347 672 -1080 
Q 306 -813 319 -275 
z
M 784 1719 
Q 784 1066 1043 766 
Q 1303 466 1694 466 
Q 2081 466 2343 764 
Q 2606 1063 2606 1700 
Q 2606 2309 2336 2618 
Q 2066 2928 1684 2928 
Q 1309 2928 1046 2623 
Q 784 2319 784 1719 
z
" transform="scale(0.015625)"/>
       <path id="ArialMT-64" d="M 2575 0 
L 2575 419 
Q 2259 -75 1647 -75 
Q 1250 -75 917 144 
Q 584 363 401 755 
Q 219 1147 219 1656 
Q 219 2153 384 2558 
Q 550 2963 881 3178 
Q 1213 3394 1622 3394 
Q 1922 3394 2156 3267 
Q 2391 3141 2538 2938 
L 2538 4581 
L 3097 4581 
L 3097 0 
L 2575 0 
z
M 797 1656 
Q 797 1019 1065 703 
Q 1334 388 1700 388 
Q 2069 388 2326 689 
Q 2584 991 2584 1609 
Q 2584 2291 2321 2609 
Q 2059 2928 1675 2928 
Q 1300 2928 1048 2622 
Q 797 2316 797 1656 
z
" transform="scale(0.015625)"/>
       <path id="ArialMT-65" d="M 2694 1069 
L 3275 997 
Q 3138 488 2766 206 
Q 2394 -75 1816 -75 
Q 1088 -75 661 373 
Q 234 822 234 1631 
Q 234 2469 665 2931 
Q 1097 3394 1784 3394 
Q 2450 3394 2872 2941 
Q 3294 2488 3294 1666 
Q 3294 1616 3291 1516 
L 816 1516 
Q 847 969 1125 678 
Q 1403 388 1819 388 
Q 2128 388 2347 550 
Q 2566 713 2694 1069 
z
M 847 1978 
L 2700 1978 
Q 2663 2397 2488 2606 
Q 2219 2931 1791 2931 
Q 1403 2931 1139 2672 
Q 875 2413 847 1978 
z
" transform="scale(0.015625)"/>
       <path id="ArialMT-74" d="M 1650 503 
L 1731 6 
Q 1494 -44 1306 -44 
Q 1000 -44 831 53 
Q 663 150 594 308 
Q 525 466 525 972 
L 525 2881 
L 113 2881 
L 113 3319 
L 525 3319 
L 525 4141 
L 1084 4478 
L 1084 3319 
L 1650 3319 
L 1650 2881 
L 1084 2881 
L 1084 941 
Q 1084 700 1114 631 
Q 1144 563 1211 522 
Q 1278 481 1403 481 
Q 1497 481 1650 503 
z
" transform="scale(0.015625)"/>
      </defs>
      <use xlink:href="#ArialMT-6c"/>
      <use xlink:href="#ArialMT-6f" x="22.216797"/>
      <use xlink:href="#ArialMT-67" x="77.832031"/>
      <use xlink:href="#ArialMT-64" x="133.447266"/>
      <use xlink:href="#ArialMT-65" x="189.0625"/>
      <use xlink:href="#ArialMT-74" x="244.677734"/>
     </g>
    </g>
   </g>
   <g id="matplotlib.axis_18"/>
   <g id="PolyCollection_8">
    <defs>
     <path id="m20df355af7" d="M 16.711364 -42.544668 
L 16.711364 -41.874844 
L 16.73003 -41.874844 
L 16.748696 -41.874844 
L 16.767362 -41.874844 
L 16.786029 -41.874844 
L 16.804695 -41.874844 
L 16.823361 -41.874844 
L 16.842027 -41.874844 
L 16.860694 -41.874844 
L 16.87936 -41.874844 
L 16.898026 -41.874844 
L 16.916693 -41.874844 
L 16.935359 -41.874844 
L 16.954025 -41.874844 
L 16.972691 -41.874844 
L 16.991358 -41.874844 
L 17.010024 -41.874844 
L 17.02869 -41.874844 
L 17.047356 -41.874844 
L 17.066023 -41.874844 
L 17.084689 -41.874844 
L 17.103355 -41.874844 
L 17.122021 -41.874844 
L 17.140688 -41.874844 
L 17.159354 -41.874844 
L 17.17802 -41.874844 
L 17.196686 -41.874844 
L 17.215353 -41.874844 
L 17.234019 -41.874844 
L 17.252685 -41.874844 
L 17.271352 -41.874844 
L 17.290018 -41.874844 
L 17.308684 -41.874844 
L 17.32735 -41.874844 
L 17.346017 -41.874844 
L 17.364683 -41.874844 
L 17.383349 -41.874844 
L 17.402015 -41.874844 
L 17.420682 -41.874844 
L 17.439348 -41.874844 
L 17.458014 -41.874844 
L 17.47668 -41.874844 
L 17.495347 -41.874844 
L 17.514013 -41.874844 
L 17.532679 -41.874844 
L 17.551345 -41.874844 
L 17.570012 -41.874844 
L 17.588678 -41.874844 
L 17.607344 -41.874844 
L 17.626011 -41.874844 
L 17.644677 -41.874844 
L 17.663343 -41.874844 
L 17.682009 -41.874844 
L 17.700676 -41.874844 
L 17.719342 -41.874844 
L 17.738008 -41.874844 
L 17.756674 -41.874844 
L 17.775341 -41.874844 
L 17.794007 -41.874844 
L 17.812673 -41.874844 
L 17.831339 -41.874844 
L 17.850006 -41.874844 
L 17.868672 -41.874844 
L 17.887338 -41.874844 
L 17.906004 -41.874844 
L 17.924671 -41.874844 
L 17.943337 -41.874844 
L 17.962003 -41.874844 
L 17.98067 -41.874844 
L 17.999336 -41.874844 
L 18.018002 -41.874844 
L 18.036668 -41.874844 
L 18.055335 -41.874844 
L 18.074001 -41.874844 
L 18.092667 -41.874844 
L 18.111333 -41.874844 
L 18.13 -41.874844 
L 18.148666 -41.874844 
L 18.167332 -41.874844 
L 18.185998 -41.874844 
L 18.204665 -41.874844 
L 18.223331 -41.874844 
L 18.241997 -41.874844 
L 18.260663 -41.874844 
L 18.27933 -41.874844 
L 18.297996 -41.874844 
L 18.316662 -41.874844 
L 18.335329 -41.874844 
L 18.353995 -41.874844 
L 18.372661 -41.874844 
L 18.391327 -41.874844 
L 18.409994 -41.874844 
L 18.42866 -41.874844 
L 18.447326 -41.874844 
L 18.465992 -41.874844 
L 18.484659 -41.874844 
L 18.503325 -41.874844 
L 18.521991 -41.874844 
L 18.540657 -41.874844 
L 18.559324 -41.874844 
L 18.57799 -41.874844 
L 18.596656 -41.874844 
L 18.615322 -41.874844 
L 18.633989 -41.874844 
L 18.652655 -41.874844 
L 18.671321 -41.874844 
L 18.689988 -41.874844 
L 18.708654 -41.874844 
L 18.72732 -41.874844 
L 18.745986 -41.874844 
L 18.764653 -41.874844 
L 18.783319 -41.874844 
L 18.801985 -41.874844 
L 18.820651 -41.874844 
L 18.839318 -41.874844 
L 18.857984 -41.874844 
L 18.87665 -41.874844 
L 18.895316 -41.874844 
L 18.913983 -41.874844 
L 18.932649 -41.874844 
L 18.951315 -41.874844 
L 18.969981 -41.874844 
L 18.988648 -41.874844 
L 19.007314 -41.874844 
L 19.02598 -41.874844 
L 19.044647 -41.874844 
L 19.063313 -41.874844 
L 19.081979 -41.874844 
L 19.100645 -41.874844 
L 19.119312 -41.874844 
L 19.137978 -41.874844 
L 19.156644 -41.874844 
L 19.17531 -41.874844 
L 19.193977 -41.874844 
L 19.212643 -41.874844 
L 19.231309 -41.874844 
L 19.249975 -41.874844 
L 19.268642 -41.874844 
L 19.287308 -41.874844 
L 19.305974 -41.874844 
L 19.32464 -41.874844 
L 19.343307 -41.874844 
L 19.361973 -41.874844 
L 19.380639 -41.874844 
L 19.399306 -41.874844 
L 19.417972 -41.874844 
L 19.436638 -41.874844 
L 19.455304 -41.874844 
L 19.473971 -41.874844 
L 19.492637 -41.874844 
L 19.511303 -41.874844 
L 19.529969 -41.874844 
L 19.548636 -41.874844 
L 19.567302 -41.874844 
L 19.585968 -41.874844 
L 19.604634 -41.874844 
L 19.623301 -41.874844 
L 19.641967 -41.874844 
L 19.660633 -41.874844 
L 19.679299 -41.874844 
L 19.697966 -41.874844 
L 19.716632 -41.874844 
L 19.735298 -41.874844 
L 19.753965 -41.874844 
L 19.772631 -41.874844 
L 19.791297 -41.874844 
L 19.809963 -41.874844 
L 19.82863 -41.874844 
L 19.847296 -41.874844 
L 19.865962 -41.874844 
L 19.884628 -41.874844 
L 19.903295 -41.874844 
L 19.921961 -41.874844 
L 19.940627 -41.874844 
L 19.959293 -41.874844 
L 19.97796 -41.874844 
L 19.996626 -41.874844 
L 20.015292 -41.874844 
L 20.033958 -41.874844 
L 20.052625 -41.874844 
L 20.071291 -41.874844 
L 20.089957 -41.874844 
L 20.108624 -41.874844 
L 20.12729 -41.874844 
L 20.145956 -41.874844 
L 20.164622 -41.874844 
L 20.183289 -41.874844 
L 20.201955 -41.874844 
L 20.220621 -41.874844 
L 20.239287 -41.874844 
L 20.257954 -41.874844 
L 20.27662 -41.874844 
L 20.295286 -41.874844 
L 20.313952 -41.874844 
L 20.332619 -41.874844 
L 20.351285 -41.874844 
L 20.369951 -41.874844 
L 20.388617 -41.874844 
L 20.407284 -41.874844 
L 20.42595 -41.874844 
L 20.42595 -42.317312 
L 20.42595 -42.317312 
L 20.407284 -42.363411 
L 20.388617 -42.410032 
L 20.369951 -42.45657 
L 20.351285 -42.50242 
L 20.332619 -42.546998 
L 20.313952 -42.589772 
L 20.295286 -42.630285 
L 20.27662 -42.668179 
L 20.257954 -42.703216 
L 20.239287 -42.735288 
L 20.220621 -42.764425 
L 20.201955 -42.790799 
L 20.183289 -42.81472 
L 20.164622 -42.836624 
L 20.145956 -42.857065 
L 20.12729 -42.876704 
L 20.108624 -42.896289 
L 20.089957 -42.91665 
L 20.071291 -42.938688 
L 20.052625 -42.963372 
L 20.033958 -42.991735 
L 20.015292 -43.024879 
L 19.996626 -43.063973 
L 19.97796 -43.110262 
L 19.959293 -43.165065 
L 19.940627 -43.229765 
L 19.921961 -43.305803 
L 19.903295 -43.394649 
L 19.884628 -43.497771 
L 19.865962 -43.61659 
L 19.847296 -43.752425 
L 19.82863 -43.906431 
L 19.809963 -44.079534 
L 19.791297 -44.272363 
L 19.772631 -44.485197 
L 19.753965 -44.717914 
L 19.735298 -44.969965 
L 19.716632 -45.24037 
L 19.697966 -45.527739 
L 19.679299 -45.830325 
L 19.660633 -46.146105 
L 19.641967 -46.472889 
L 19.623301 -46.808451 
L 19.604634 -47.15068 
L 19.585968 -47.497736 
L 19.567302 -47.848202 
L 19.548636 -48.201234 
L 19.529969 -48.556677 
L 19.511303 -48.915158 
L 19.492637 -49.278137 
L 19.473971 -49.647914 
L 19.455304 -50.027594 
L 19.436638 -50.420998 
L 19.417972 -50.832548 
L 19.399306 -51.267102 
L 19.380639 -51.729776 
L 19.361973 -52.225745 
L 19.343307 -52.760044 
L 19.32464 -53.337379 
L 19.305974 -53.961947 
L 19.287308 -54.637286 
L 19.268642 -55.366153 
L 19.249975 -56.150429 
L 19.231309 -56.991056 
L 19.212643 -57.887998 
L 19.193977 -58.84022 
L 19.17531 -59.845687 
L 19.156644 -60.901367 
L 19.137978 -62.003241 
L 19.119312 -63.146315 
L 19.100645 -64.324631 
L 19.081979 -65.531285 
L 19.063313 -66.758456 
L 19.044647 -67.997449 
L 19.02598 -69.238761 
L 19.007314 -70.472181 
L 18.988648 -71.686932 
L 18.969981 -72.871851 
L 18.951315 -74.015614 
L 18.932649 -75.107007 
L 18.913983 -76.135221 
L 18.895316 -77.090181 
L 18.87665 -77.962867 
L 18.857984 -78.745635 
L 18.839318 -79.432503 
L 18.820651 -80.019379 
L 18.801985 -80.504237 
L 18.783319 -80.887199 
L 18.764653 -81.170529 
L 18.745986 -81.358538 
L 18.72732 -81.457394 
L 18.708654 -81.474844 
L 18.689988 -81.41987 
L 18.671321 -81.302293 
L 18.652655 -81.132347 
L 18.633989 -80.920237 
L 18.615322 -80.675724 
L 18.596656 -80.407741 
L 18.57799 -80.124068 
L 18.559324 -79.831078 
L 18.540657 -79.533573 
L 18.521991 -79.234694 
L 18.503325 -78.935942 
L 18.484659 -78.637258 
L 18.465992 -78.337198 
L 18.447326 -78.033154 
L 18.42866 -77.721624 
L 18.409994 -77.398505 
L 18.391327 -77.059395 
L 18.372661 -76.699879 
L 18.353995 -76.315792 
L 18.335329 -75.903432 
L 18.316662 -75.459733 
L 18.297996 -74.982371 
L 18.27933 -74.469819 
L 18.260663 -73.921339 
L 18.241997 -73.336932 
L 18.223331 -72.717246 
L 18.204665 -72.063457 
L 18.185998 -71.377134 
L 18.167332 -70.660111 
L 18.148666 -69.914363 
L 18.13 -69.141916 
L 18.111333 -68.344775 
L 18.092667 -67.524905 
L 18.074001 -66.684232 
L 18.055335 -65.824693 
L 18.036668 -64.948301 
L 18.018002 -64.057244 
L 17.999336 -63.153977 
L 17.98067 -62.241326 
L 17.962003 -61.322562 
L 17.943337 -60.401458 
L 17.924671 -59.482314 
L 17.906004 -58.569928 
L 17.887338 -57.669537 
L 17.868672 -56.786705 
L 17.850006 -55.927178 
L 17.831339 -55.096705 
L 17.812673 -54.300831 
L 17.794007 -53.544694 
L 17.775341 -52.832808 
L 17.756674 -52.168874 
L 17.738008 -51.555614 
L 17.719342 -50.994641 
L 17.700676 -50.486381 
L 17.682009 -50.030045 
L 17.663343 -49.623653 
L 17.644677 -49.264116 
L 17.626011 -48.947366 
L 17.607344 -48.668526 
L 17.588678 -48.42212 
L 17.570012 -48.202302 
L 17.551345 -48.003094 
L 17.532679 -47.81863 
L 17.514013 -47.643379 
L 17.495347 -47.472353 
L 17.47668 -47.301274 
L 17.458014 -47.126706 
L 17.439348 -46.94614 
L 17.420682 -46.758036 
L 17.402015 -46.56181 
L 17.383349 -46.357784 
L 17.364683 -46.147095 
L 17.346017 -45.931565 
L 17.32735 -45.713556 
L 17.308684 -45.495794 
L 17.290018 -45.281204 
L 17.271352 -45.072729 
L 17.252685 -44.873166 
L 17.234019 -44.685026 
L 17.215353 -44.510406 
L 17.196686 -44.350896 
L 17.17802 -44.207518 
L 17.159354 -44.080695 
L 17.140688 -43.970251 
L 17.122021 -43.875444 
L 17.103355 -43.795029 
L 17.084689 -43.727331 
L 17.066023 -43.670348 
L 17.047356 -43.621858 
L 17.02869 -43.57953 
L 17.010024 -43.541037 
L 16.991358 -43.504158 
L 16.972691 -43.466872 
L 16.954025 -43.427432 
L 16.935359 -43.384423 
L 16.916693 -43.336802 
L 16.898026 -43.283908 
L 16.87936 -43.225466 
L 16.860694 -43.161559 
L 16.842027 -43.092594 
L 16.823361 -43.019252 
L 16.804695 -42.942429 
L 16.786029 -42.863173 
L 16.767362 -42.782622 
L 16.748696 -42.701942 
L 16.73003 -42.62227 
L 16.711364 -42.544668 
z
" style="stroke: #482475; stroke-width: 1.25"/>
    </defs>
    <g>
     <use xlink:href="#m20df355af7" x="0" y="173.814844" style="fill: #482475; fill-opacity: 0.7; stroke: #482475; stroke-width: 1.25"/>
    </g>
   </g>
   <g id="line2d_9">
    <path d="M 7.2 131.94 
L 216.45 131.94 
" style="fill: none; stroke: #482475; stroke-opacity: 0.9; stroke-linecap: round"/>
   </g>
   <g id="text_14">
    <!-- 8 -->
    <g style="fill: #482475" transform="translate(7.2 130.892625) scale(0.12 -0.12)">
     <defs>
      <path id="Arial-BoldMT-38" d="M 1025 2472 
Q 684 2616 529 2867 
Q 375 3119 375 3419 
Q 375 3931 733 4265 
Q 1091 4600 1750 4600 
Q 2403 4600 2764 4265 
Q 3125 3931 3125 3419 
Q 3125 3100 2959 2851 
Q 2794 2603 2494 2472 
Q 2875 2319 3073 2025 
Q 3272 1731 3272 1347 
Q 3272 713 2867 316 
Q 2463 -81 1791 -81 
Q 1166 -81 750 247 
Q 259 634 259 1309 
Q 259 1681 443 1992 
Q 628 2303 1025 2472 
z
M 1206 3356 
Q 1206 3094 1354 2947 
Q 1503 2800 1750 2800 
Q 2000 2800 2150 2948 
Q 2300 3097 2300 3359 
Q 2300 3606 2151 3754 
Q 2003 3903 1759 3903 
Q 1506 3903 1356 3753 
Q 1206 3603 1206 3356 
z
M 1125 1394 
Q 1125 1031 1311 828 
Q 1497 625 1775 625 
Q 2047 625 2225 820 
Q 2403 1016 2403 1384 
Q 2403 1706 2222 1901 
Q 2041 2097 1763 2097 
Q 1441 2097 1283 1875 
Q 1125 1653 1125 1394 
z
" transform="scale(0.015625)"/>
     </defs>
     <use xlink:href="#Arial-BoldMT-38"/>
    </g>
   </g>
  </g>
 </g>
</svg>
